<svg width="100" height="26" viewBox="0 0 100 26" fill="none" xmlns="http://www.w3.org/2000/svg">
<path d="M15.0396 12.3366C15.0504 11.502 15.2721 10.6836 15.6841 9.95764C16.0961 9.23169 16.6851 8.62175 17.3962 8.18458C16.9444 7.53942 16.3485 7.00847 15.6557 6.63392C14.9628 6.25937 14.1922 6.05153 13.405 6.0269C11.7258 5.85064 10.0978 7.03173 9.24212 7.03173C8.36985 7.03173 7.05235 6.0444 5.63362 6.07359C4.71595 6.10323 3.8216 6.37009 3.03772 6.84815C2.25385 7.3262 1.60717 7.99916 1.1607 8.80145C-0.773298 12.1499 0.669292 17.0709 2.5219 19.7775C3.4488 21.1029 4.53208 22.5833 5.94953 22.5308C7.33659 22.4733 7.85463 21.6464 9.52893 21.6464C11.1877 21.6464 11.6737 22.5308 13.1199 22.4975C14.6083 22.4733 15.5461 21.1662 16.4404 19.8283C17.1064 18.884 17.6189 17.8402 17.9589 16.7358C17.0942 16.3701 16.3562 15.7579 15.8371 14.9756C15.318 14.1933 15.0406 13.2755 15.0396 12.3366Z" fill="black"/>
<path d="M12.308 4.24685C13.1195 3.27264 13.5193 2.02046 13.4225 0.756226C12.1827 0.886446 11.0374 1.47901 10.2149 2.41584C9.81279 2.8735 9.50479 3.40594 9.30855 3.98271C9.1123 4.55948 9.03166 5.16927 9.07122 5.77723C9.69136 5.78361 10.3049 5.6492 10.8655 5.38411C11.4262 5.11902 11.9194 4.73017 12.308 4.24685Z" fill="black"/>
<path d="M32.5721 19.1756H27.8387L26.702 22.532H24.6971L29.1805 10.114H31.2635L35.7469 22.532H33.7079L32.5721 19.1756ZM28.329 17.6267H32.081L30.2314 12.1795H30.1796L28.329 17.6267Z" fill="black"/>
<path d="M45.4296 18.0056C45.4296 20.8191 43.9237 22.6267 41.6512 22.6267C41.0756 22.6568 40.5031 22.5242 39.9993 22.2441C39.4955 21.964 39.0808 21.5476 38.8026 21.0427H38.7596V25.5271H36.9012V13.4783H38.7001V14.9841H38.7343C39.0252 14.4817 39.4469 14.0675 39.9546 13.7856C40.4622 13.5038 41.0367 13.3648 41.6171 13.3836C43.9149 13.3836 45.4296 15.2 45.4296 18.0056ZM43.5194 18.0056C43.5194 16.1726 42.5721 14.9675 41.1268 14.9675C39.7069 14.9675 38.7518 16.198 38.7518 18.0056C38.7518 19.8299 39.7069 21.0515 41.1268 21.0515C42.5721 21.0515 43.5194 19.8552 43.5194 18.0056Z" fill="black"/>
<path d="M55.3944 18.0056C55.3944 20.8191 53.8885 22.6267 51.6161 22.6267C51.0404 22.6568 50.4679 22.5242 49.9641 22.2441C49.4604 21.964 49.0456 21.5476 48.7675 21.0427H48.7245V25.5271H46.8661V13.4783H48.6649V14.9841H48.6991C48.99 14.4817 49.4117 14.0675 49.9194 13.7856C50.427 13.5038 51.0016 13.3648 51.5819 13.3836C53.8798 13.3836 55.3944 15.2 55.3944 18.0056ZM53.4842 18.0056C53.4842 16.1726 52.537 14.9675 51.0917 14.9675C49.6717 14.9675 48.7167 16.198 48.7167 18.0056C48.7167 19.8299 49.6717 21.0515 51.0917 21.0515C52.537 21.0515 53.4842 19.8552 53.4842 18.0056Z" fill="black"/>
<path d="M61.9804 19.072C62.118 20.3035 63.3144 21.112 64.9491 21.112C66.5155 21.112 67.6425 20.3034 67.6425 19.1931C67.6425 18.2292 66.9628 17.6521 65.3534 17.2566L63.744 16.8689C61.4638 16.3181 60.4052 15.2517 60.4052 13.5212C60.4052 11.3786 62.2724 9.90694 64.9237 9.90694C67.5477 9.90694 69.3466 11.3786 69.4071 13.5212H67.5311C67.4188 12.2819 66.3944 11.5339 64.8973 11.5339C63.4003 11.5339 62.3758 12.2907 62.3758 13.3923C62.3758 14.2702 63.0301 14.7868 64.6307 15.1823L65.9989 15.5182C68.5467 16.1208 69.6053 17.1442 69.6053 18.9606C69.6053 21.2839 67.7547 22.7389 64.8114 22.7389C62.0575 22.7389 60.1981 21.318 60.078 19.0719L61.9804 19.072Z" fill="black"/>
<path d="M73.6161 11.3357V13.4783H75.3378V14.95H73.6161V19.9412C73.6161 20.7166 73.9608 21.0779 74.7177 21.0779C74.922 21.0743 75.1261 21.06 75.329 21.0349V22.4978C74.9887 22.5614 74.6429 22.5902 74.2968 22.5837C72.4638 22.5837 71.7489 21.8952 71.7489 20.1394V14.95H70.4325V13.4783H71.7489V11.3357H73.6161Z" fill="black"/>
<path d="M76.3349 18.0056C76.3349 15.157 78.0126 13.367 80.6288 13.367C83.2538 13.367 84.9238 15.157 84.9238 18.0056C84.9238 20.8621 83.2626 22.6443 80.6288 22.6443C77.996 22.6443 76.3349 20.8621 76.3349 18.0056ZM83.0302 18.0056C83.0302 16.0515 82.1347 14.8982 80.6288 14.8982C79.123 14.8982 78.2284 16.0603 78.2284 18.0056C78.2284 19.9675 79.123 21.1121 80.6288 21.1121C82.1347 21.1121 83.0302 19.9675 83.0302 18.0056Z" fill="black"/>
<path d="M86.4559 13.4783H88.2284V15.0193H88.2714C88.3913 14.538 88.6733 14.1127 89.0699 13.8148C89.4664 13.5169 89.9535 13.3646 90.4491 13.3835C90.6633 13.3828 90.8769 13.4061 91.0859 13.4529V15.1912C90.8155 15.1085 90.5334 15.0706 90.2509 15.0789C89.9809 15.0679 89.7117 15.1155 89.4619 15.2184C89.212 15.3213 88.9874 15.477 88.8034 15.6749C88.6195 15.8728 88.4805 16.1082 88.3961 16.3648C88.3116 16.6215 88.2838 16.8934 88.3143 17.1619V22.532H86.4559L86.4559 13.4783Z" fill="black"/>
<path d="M99.6542 19.8728C99.4042 21.5164 97.8036 22.6443 95.7557 22.6443C93.122 22.6443 91.4872 20.8796 91.4872 18.0486C91.4872 15.2087 93.1307 13.367 95.6776 13.367C98.1825 13.367 99.7577 15.0876 99.7577 17.8328V18.4695H93.3632V18.5818C93.3337 18.915 93.3754 19.2507 93.4855 19.5665C93.5957 19.8823 93.7719 20.1711 94.0022 20.4137C94.2326 20.6562 94.5119 20.847 94.8216 20.9733C95.1314 21.0996 95.4644 21.1585 95.7987 21.1462C96.2379 21.1874 96.6786 21.0857 97.0553 20.8562C97.432 20.6268 97.7246 20.2819 97.8895 19.8728L99.6542 19.8728ZM93.372 17.1707H97.8983C97.915 16.8711 97.8696 16.5713 97.7649 16.29C97.6602 16.0088 97.4986 15.7523 97.29 15.5365C97.0815 15.3208 96.8306 15.1504 96.5532 15.0362C96.2757 14.922 95.9776 14.8664 95.6776 14.8728C95.375 14.871 95.075 14.9291 94.795 15.0439C94.5149 15.1586 94.2604 15.3277 94.046 15.5413C93.8316 15.755 93.6617 16.0089 93.546 16.2886C93.4303 16.5682 93.3712 16.868 93.372 17.1707Z" fill="black"/>
<path d="M28.0961 0.7669C28.4857 0.738941 28.8766 0.797801 29.2408 0.939234C29.6049 1.08067 29.9331 1.30115 30.2016 1.58477C30.4702 1.8684 30.6725 2.2081 30.7939 2.57937C30.9153 2.95064 30.9528 3.34422 30.9037 3.73174C30.9037 5.63799 29.8734 6.73374 28.0961 6.73374H25.9408V0.7669H28.0961ZM26.8675 5.8899H27.9925C28.271 5.90654 28.5496 5.86089 28.8081 5.75628C29.0666 5.65167 29.2986 5.49072 29.4871 5.28515C29.6756 5.07959 29.8159 4.83458 29.8977 4.56796C29.9796 4.30134 30.001 4.01982 29.9603 3.7439C29.998 3.46907 29.9745 3.18929 29.8914 2.92463C29.8082 2.65997 29.6676 2.41696 29.4795 2.21303C29.2915 2.0091 29.0606 1.8493 28.8036 1.74506C28.5465 1.64082 28.2695 1.59474 27.9925 1.61011H26.8675V5.8899Z" fill="black"/>
<path d="M31.9506 4.48024C31.9223 4.18432 31.9561 3.88575 32.0499 3.60368C32.1438 3.32162 32.2955 3.06227 32.4955 2.84229C32.6954 2.62231 32.9391 2.44654 33.211 2.32627C33.4828 2.20599 33.7768 2.14386 34.0741 2.14386C34.3714 2.14386 34.6654 2.20599 34.9372 2.32627C35.2091 2.44654 35.4528 2.62231 35.6527 2.84229C35.8526 3.06227 36.0044 3.32162 36.0982 3.60368C36.1921 3.88575 36.2259 4.18432 36.1976 4.48024C36.2265 4.77646 36.193 5.07544 36.0994 5.35797C36.0058 5.64049 35.8542 5.90031 35.6542 6.12073C35.4542 6.34114 35.2103 6.51727 34.9382 6.63781C34.666 6.75834 34.3717 6.82061 34.0741 6.82061C33.7765 6.82061 33.4821 6.75834 33.21 6.63781C32.9379 6.51727 32.694 6.34114 32.494 6.12073C32.294 5.90031 32.1423 5.64049 32.0488 5.35797C31.9552 5.07544 31.9217 4.77646 31.9506 4.48024ZM35.2836 4.48024C35.2836 3.50417 34.8451 2.93337 34.0756 2.93337C33.3031 2.93337 32.8686 3.50417 32.8686 4.48025C32.8686 5.46414 33.3031 6.03054 34.0756 6.03054C34.8451 6.03053 35.2836 5.46022 35.2836 4.48024Z" fill="black"/>
<path d="M41.8431 6.73365H40.9213L39.9906 3.41724H39.9203L38.9935 6.73365H38.0804L36.8392 2.23072H37.7406L38.5472 5.66672H38.6137L39.5394 2.23072H40.392L41.3178 5.66672H41.3881L42.1908 2.23072H43.0795L41.8431 6.73365Z" fill="black"/>
<path d="M44.1234 2.23072H44.9789V2.94605H45.0453C45.1579 2.68913 45.3479 2.47376 45.5888 2.32995C45.8297 2.18615 46.1094 2.12107 46.389 2.1438C46.6081 2.12733 46.8281 2.16036 47.0327 2.24046C47.2373 2.32055 47.4213 2.44566 47.571 2.6065C47.7207 2.76735 47.8322 2.95981 47.8974 3.16963C47.9626 3.37945 47.9798 3.60125 47.9476 3.8186V6.7336H47.059V4.04176C47.059 3.31813 46.7445 2.95826 46.0873 2.95826C45.9385 2.95133 45.79 2.97665 45.652 3.03248C45.5139 3.08831 45.3896 3.17333 45.2874 3.28172C45.1853 3.3901 45.1078 3.51929 45.0603 3.66042C45.0128 3.80155 44.9963 3.95129 45.0121 4.09937V6.73365H44.1234L44.1234 2.23072Z" fill="black"/>
<path d="M49.3636 0.4729H50.2523V6.73364H49.3636V0.4729Z" fill="black"/>
<path d="M51.4877 4.48024C51.4594 4.1843 51.4933 3.88572 51.5871 3.60364C51.681 3.32156 51.8328 3.06221 52.0327 2.84222C52.2327 2.62223 52.4764 2.44646 52.7483 2.32619C53.0202 2.20591 53.3142 2.14378 53.6115 2.14378C53.9087 2.14378 54.2027 2.20591 54.4746 2.32619C54.7465 2.44646 54.9902 2.62223 55.1902 2.84222C55.3901 3.06221 55.5419 3.32156 55.6358 3.60364C55.7296 3.88572 55.7635 4.1843 55.7352 4.48024C55.764 4.77647 55.7306 5.07546 55.6369 5.35798C55.5433 5.64051 55.3916 5.90032 55.1916 6.12073C54.9916 6.34113 54.7477 6.51726 54.4756 6.63779C54.2034 6.75832 53.9091 6.82059 53.6115 6.82059C53.3138 6.82059 53.0195 6.75832 52.7473 6.63779C52.4752 6.51726 52.2313 6.34113 52.0313 6.12073C51.8313 5.90032 51.6796 5.64051 51.586 5.35798C51.4923 5.07546 51.4589 4.77647 51.4877 4.48024ZM54.8207 4.48024C54.8207 3.50417 54.3822 2.93337 53.6127 2.93337C52.8402 2.93337 52.4057 3.50417 52.4057 4.48025C52.4057 5.46414 52.8402 6.03054 53.6127 6.03054C54.3822 6.03053 54.8207 5.46022 54.8207 4.48024Z" fill="black"/>
<path d="M56.6708 5.46022C56.6708 4.64967 57.2743 4.18239 58.3456 4.11598L59.5653 4.04567V3.657C59.5653 3.18141 59.2509 2.91286 58.6434 2.91286C58.1473 2.91286 57.8036 3.09499 57.705 3.41335H56.8446C56.9354 2.63991 57.663 2.14382 58.6845 2.14382C59.8134 2.14382 60.4501 2.70582 60.4501 3.657V6.73366H59.5946V6.10085H59.5243C59.3816 6.32784 59.1812 6.51289 58.9436 6.6371C58.7059 6.76131 58.4396 6.82023 58.1718 6.80785C57.9827 6.82751 57.7917 6.80734 57.6109 6.74865C57.4301 6.68995 57.2637 6.59402 57.1223 6.46705C56.9809 6.34008 56.8676 6.18489 56.7899 6.01147C56.7121 5.83806 56.6715 5.65027 56.6708 5.46022ZM59.5653 5.07545V4.69899L58.4657 4.7693C57.8456 4.8108 57.5643 5.02174 57.5643 5.41871C57.5643 5.82398 57.9159 6.05982 58.3993 6.05982C58.541 6.07416 58.6841 6.05986 58.8201 6.01777C58.9561 5.97568 59.0822 5.90666 59.191 5.81482C59.2998 5.72297 59.389 5.61019 59.4533 5.48317C59.5176 5.35615 59.5557 5.21749 59.5653 5.07545Z" fill="black"/>
<path d="M61.618 4.48024C61.618 3.05739 62.3495 2.15602 63.4872 2.15602C63.7686 2.14305 64.0479 2.21046 64.2924 2.35035C64.5369 2.49025 64.7366 2.69685 64.868 2.94602H64.9345V0.4729H65.8231V6.73364H64.9716V6.02221H64.9013C64.7596 6.2697 64.553 6.47374 64.3038 6.61222C64.0545 6.7507 63.7721 6.81835 63.4872 6.80785C62.3417 6.8079 61.618 5.90651 61.618 4.48024ZM62.536 4.48024C62.536 5.43532 62.9862 6.01003 63.7392 6.01003C64.4882 6.01003 64.9511 5.42703 64.9511 4.48415C64.9511 3.54567 64.4833 2.95436 63.7392 2.95436C62.9911 2.95436 62.536 3.53297 62.536 4.48024Z" fill="black"/>
<path d="M69.4999 4.48024C69.4716 4.18432 69.5054 3.88575 69.5993 3.60368C69.6931 3.32162 69.8449 3.06227 70.0448 2.84229C70.2447 2.62231 70.4884 2.44654 70.7603 2.32627C71.0322 2.20599 71.3261 2.14386 71.6234 2.14386C71.9207 2.14386 72.2147 2.20599 72.4865 2.32627C72.7584 2.44654 73.0021 2.62231 73.202 2.84229C73.402 3.06227 73.5537 3.32162 73.6476 3.60368C73.7414 3.88575 73.7753 4.18432 73.7469 4.48024C73.7758 4.77646 73.7423 5.07544 73.6488 5.35797C73.5552 5.64049 73.4035 5.90031 73.2035 6.12073C73.0035 6.34114 72.7596 6.51727 72.4875 6.63781C72.2154 6.75834 71.921 6.82061 71.6234 6.82061C71.3258 6.82061 71.0315 6.75834 70.7593 6.63781C70.4872 6.51727 70.2433 6.34114 70.0433 6.12073C69.8433 5.90031 69.6917 5.64049 69.5981 5.35797C69.5045 5.07544 69.471 4.77646 69.4999 4.48024ZM72.8329 4.48024C72.8329 3.50417 72.3944 2.93337 71.6249 2.93337C70.8524 2.93337 70.4179 3.50417 70.4179 4.48025C70.4179 5.46414 70.8524 6.03054 71.6249 6.03054C72.3944 6.03053 72.8329 5.46022 72.8329 4.48024Z" fill="black"/>
<path d="M74.9393 2.23072H75.7948V2.94605H75.8612C75.9739 2.68913 76.1639 2.47376 76.4047 2.32995C76.6456 2.18615 76.9254 2.12107 77.205 2.1438C77.4241 2.12733 77.6441 2.16036 77.8487 2.24046C78.0533 2.32055 78.2372 2.44566 78.3869 2.6065C78.5366 2.76735 78.6482 2.95981 78.7134 3.16963C78.7786 3.37945 78.7957 3.60125 78.7635 3.8186V6.7336H77.8749V4.04176C77.8749 3.31813 77.5604 2.95826 76.9032 2.95826C76.7544 2.95133 76.6059 2.97665 76.4679 3.03248C76.3298 3.08831 76.2055 3.17333 76.1034 3.28172C76.0012 3.3901 75.9238 3.51929 75.8762 3.66042C75.8287 3.80155 75.8122 3.95129 75.828 4.09937V6.73365H74.9393V2.23072Z" fill="black"/>
<path d="M83.785 1.10963V2.25123H84.7606V2.99977H83.785V5.3152C83.785 5.78688 83.9794 5.99342 84.4218 5.99342C84.535 5.99306 84.6482 5.98621 84.7606 5.97291V6.71314C84.601 6.74169 84.4393 6.75688 84.2772 6.75855C83.2889 6.75855 82.8954 6.41089 82.8954 5.54273V2.99973H82.1805V2.25119H82.8954V1.10963H83.785Z" fill="black"/>
<path d="M85.9745 0.4729H86.8554V2.95435H86.9257C87.0438 2.69503 87.239 2.47844 87.4847 2.33409C87.7304 2.18974 88.0146 2.12466 88.2987 2.14771C88.5166 2.13585 88.7345 2.17224 88.9368 2.25428C89.1391 2.33632 89.3208 2.462 89.4689 2.62233C89.617 2.78267 89.7279 2.97372 89.7937 3.18186C89.8595 3.38999 89.8785 3.61008 89.8494 3.82642V6.73365H88.9599V4.04565C88.9599 3.32641 88.6249 2.96215 87.997 2.96215C87.8443 2.94962 87.6906 2.97062 87.5468 3.02367C87.4031 3.07673 87.2726 3.16056 87.1646 3.26929C87.0566 3.37803 86.9737 3.50905 86.9216 3.65319C86.8696 3.79733 86.8496 3.9511 86.8632 4.10375V6.73363H85.9745L85.9745 0.4729Z" fill="black"/>
<path d="M95.0311 5.51783C94.9104 5.92937 94.6488 6.28535 94.2921 6.5235C93.9354 6.76165 93.5063 6.8668 93.08 6.82056C92.7833 6.82839 92.4885 6.77157 92.216 6.65404C91.9435 6.53651 91.6998 6.36109 91.5019 6.13996C91.304 5.91882 91.1566 5.65726 91.0699 5.37344C90.9832 5.08962 90.9593 4.79033 90.9999 4.49635C90.9604 4.20146 90.9847 3.90153 91.0712 3.61686C91.1577 3.33219 91.3043 3.06942 91.5012 2.84635C91.698 2.62327 91.9405 2.4451 92.2122 2.32389C92.484 2.20269 92.7785 2.14127 93.076 2.14381C94.329 2.14381 95.0848 2.99981 95.0848 4.41381V4.7239H91.9052V4.7737C91.8912 4.93895 91.912 5.10528 91.9661 5.26203C92.0203 5.41878 92.1065 5.56249 92.2194 5.68394C92.3324 5.8054 92.4694 5.90192 92.6218 5.96731C92.7742 6.03271 92.9386 6.06554 93.1044 6.0637C93.3169 6.08922 93.5323 6.05094 93.7231 5.95374C93.9138 5.85653 94.0714 5.70478 94.1757 5.5178L95.0311 5.51783ZM91.9051 4.06666H94.1795C94.1907 3.91553 94.1702 3.76373 94.1192 3.62101C94.0683 3.4783 93.988 3.34782 93.8837 3.23796C93.7793 3.1281 93.6531 3.0413 93.5131 2.98312C93.3732 2.92495 93.2226 2.89669 93.0711 2.90016C92.9174 2.89823 92.7649 2.92709 92.6225 2.98503C92.4802 3.04298 92.3508 3.12884 92.2422 3.23755C92.1335 3.34626 92.0477 3.47563 91.9898 3.61802C91.9319 3.76042 91.9031 3.91296 91.9051 4.06666Z" fill="black"/>
</svg>
