<svg width="24" height="25" viewBox="0 0 24 25" fill="none" xmlns="http://www.w3.org/2000/svg">
<path d="M20 11.499H22C22 6.369 18.127 2.5 12.99 2.5V4.5C17.052 4.5 20 7.443 20 11.499Z" fill="white"/>
<path d="M13 8.49999C15.103 8.49999 16 9.39699 16 11.5H18C18 8.27499 16.225 6.49999 13 6.49999V8.49999ZM16.422 13.943C16.2299 13.7683 15.9774 13.6752 15.7178 13.6832C15.4583 13.6912 15.212 13.7998 15.031 13.986L12.638 16.447C12.062 16.337 10.904 15.976 9.71204 14.787C8.52004 13.594 8.15904 12.433 8.05204 11.861L10.511 9.46699C10.6975 9.28612 10.8062 9.03982 10.8142 8.7802C10.8222 8.52059 10.7289 8.26804 10.554 8.07599L6.85904 4.01299C6.68408 3.82035 6.44092 3.7035 6.18119 3.68725C5.92146 3.67101 5.66564 3.75665 5.46804 3.92599L3.29804 5.78699C3.12515 5.96051 3.02196 6.19145 3.00804 6.43599C2.99304 6.68599 2.70704 12.608 7.29904 17.202C11.305 21.207 16.323 21.5 17.705 21.5C17.907 21.5 18.031 21.494 18.064 21.492C18.3086 21.4783 18.5394 21.3747 18.712 21.201L20.572 19.03C20.7415 18.8325 20.8273 18.5768 20.8113 18.317C20.7952 18.0573 20.6785 17.8141 20.486 17.639L16.422 13.943Z" fill="white"/>
</svg>
