<svg width="44" height="44" viewBox="0 0 44 44" fill="none" xmlns="http://www.w3.org/2000/svg">
<path d="M42.8893 13.3492H30.6481V6.53744C30.6481 2.93225 27.7172 0 24.1134 0H14.4491C14.0667 0 13.7316 0.19323 13.533 0.487807C13.4127 0.666174 13.3438 0.878324 13.3438 1.10669V13.3505H6.53473C2.9336 13.3505 0 16.2814 0 19.8826V29.5495C0 30.159 0.495916 30.6562 1.10669 30.6562H13.3451V37.4653C13.3451 41.0705 16.2787 44 19.8799 44H29.5441C30.1536 44 30.6508 43.5068 30.6508 42.8933V30.6549H37.4599C41.065 30.6549 43.9973 27.7213 43.9973 24.1174V14.4559C43.9959 13.8424 43.4987 13.3492 42.8893 13.3492ZM20.9311 28.4428C19.3988 28.4428 18.1489 27.1943 18.1489 25.6579C18.1489 24.1255 19.3988 22.8756 20.9311 22.8756C21.1622 22.8756 21.3892 22.9013 21.6108 22.958C21.9878 23.054 22.3838 22.9432 22.6581 22.6689C22.9351 22.3919 23.0459 21.9946 22.9499 21.6176C22.8945 21.396 22.8675 21.1676 22.8675 20.9379C22.8675 19.4056 24.1174 18.1529 25.6498 18.1529C27.1848 18.1529 28.4347 19.4056 28.4347 20.9379V28.4415H20.9311V28.4428ZM41.7826 24.1174C41.7826 26.5024 39.8448 28.4428 37.4572 28.4428H30.6481V20.9393C30.6481 18.184 28.4064 15.9423 25.6511 15.9423C22.9891 15.9423 20.8028 18.0408 20.6663 20.6704C18.034 20.8109 15.9382 22.9932 15.9382 25.6579C15.9382 26.7821 16.3125 27.8213 16.9395 28.655C17.226 29.0374 17.5638 29.3766 17.9462 29.659C18.7786 30.2833 19.8136 30.6549 20.9325 30.6549H28.4361V41.7866H19.8785C17.4935 41.7866 15.5558 39.8489 15.5558 37.4639V29.5482C15.5558 29.2793 15.4599 29.0347 15.3018 28.8442C15.2815 28.8144 15.2545 28.7915 15.2315 28.7658C15.0302 28.5645 14.7531 28.4415 14.4491 28.4415H2.21068V19.8812C2.21068 17.4989 4.14839 15.5612 6.53338 15.5612H14.4491C15.0585 15.5612 15.5558 15.0653 15.5558 14.4545V2.21068H24.1134C26.4957 2.21068 28.4361 4.1511 28.4361 6.53608V14.4545C28.4361 15.0639 28.932 15.5612 29.5428 15.5612H41.7839V24.1174H41.7826Z" fill="url(#paint0_linear_0_947)"/>
<defs>
<linearGradient id="paint0_linear_0_947" x1="34.8066" y1="6.39065" x2="9.18317" y2="37.6099" gradientUnits="userSpaceOnUse">
<stop stop-color="#6156C0"/>
<stop offset="1" stop-color="#71C8CB"/>
</linearGradient>
</defs>
</svg>
