<svg width="40" height="41" viewBox="0 0 40 41" fill="none" xmlns="http://www.w3.org/2000/svg">
<circle cx="20" cy="20.5" r="20" fill="#EDF0F8"/>
<path d="M26.4981 15.2869C25.2823 14.7989 23.9994 14.4506 22.6813 14.2507C22.6694 14.249 22.6571 14.2505 22.6462 14.2551C22.6353 14.2596 22.6263 14.2671 22.6204 14.2763C22.4552 14.5326 22.2723 14.8677 22.1446 15.1301C20.7239 14.9415 19.2787 14.9415 17.8579 15.1301C17.7154 14.8378 17.5543 14.5528 17.3751 14.2763C17.3691 14.2672 17.3601 14.2598 17.3492 14.2553C17.3383 14.2507 17.3261 14.2491 17.3142 14.2507C15.9958 14.4495 14.7127 14.798 13.4974 15.2869C13.487 15.2904 13.4783 15.2969 13.4728 15.3054C11.0424 18.4816 10.3756 21.58 10.7025 24.6394C10.7037 24.6537 10.7143 24.6681 10.7271 24.6773C12.1424 25.5942 13.7255 26.2943 15.4087 26.7476C15.4206 26.7509 15.4334 26.7508 15.4452 26.7473C15.457 26.7438 15.4672 26.7371 15.4744 26.7282C15.8353 26.2977 16.1564 25.8436 16.4329 25.366C16.4387 25.3562 16.4407 25.345 16.4386 25.3341C16.4365 25.3232 16.4304 25.3132 16.4212 25.3056C16.4152 25.3006 16.408 25.2967 16.4001 25.2943C15.8953 25.1246 15.4063 24.9207 14.9377 24.6845C14.9246 24.678 14.9148 24.6673 14.9105 24.6547C14.9061 24.6421 14.9074 24.6286 14.9142 24.6168C14.9182 24.6092 14.9242 24.6025 14.9318 24.5973C15.0302 24.5328 15.1287 24.4651 15.2224 24.3975C15.2307 24.3916 15.2406 24.3879 15.2512 24.3866C15.2617 24.3854 15.2724 24.3866 15.2822 24.3903C18.3513 25.6161 21.6735 25.6161 24.7051 24.3903C24.7153 24.3865 24.7264 24.3851 24.7373 24.3864C24.7483 24.3876 24.7586 24.3915 24.7672 24.3975C24.861 24.4651 24.9594 24.5328 25.0579 24.5973C25.0658 24.6024 25.0722 24.6092 25.0765 24.617C25.0808 24.6248 25.0828 24.6334 25.0823 24.642C25.0818 24.6506 25.0789 24.659 25.0738 24.6664C25.0688 24.6738 25.0617 24.68 25.0532 24.6845C24.5856 24.9228 24.096 25.1265 23.5895 25.2933C23.5814 25.2958 23.5741 25.2999 23.568 25.3052C23.5619 25.3105 23.5573 25.3169 23.5544 25.324C23.5516 25.3308 23.5506 25.3381 23.5512 25.3453C23.5518 25.3526 23.5541 25.3596 23.5579 25.366C23.8391 25.8426 24.1614 26.2977 24.5153 26.7282C24.5224 26.7371 24.5327 26.7438 24.5445 26.7473C24.5563 26.7508 24.569 26.7509 24.5809 26.7476C26.267 26.2957 27.8526 25.5955 29.2695 24.6773C29.2766 24.673 29.2825 24.6673 29.2868 24.6608C29.291 24.6542 29.2936 24.6469 29.2941 24.6394C29.6855 21.1023 28.6391 18.0296 26.5215 15.3064C26.5194 15.3019 26.5162 15.2978 26.5122 15.2945C26.5081 15.2911 26.5033 15.2885 26.4981 15.2869ZM16.8911 22.776C15.9665 22.776 15.206 22.034 15.206 21.1239C15.206 20.2127 15.9525 19.4707 16.8911 19.4707C17.8368 19.4707 18.5903 20.2189 18.5763 21.1239C18.5763 22.034 17.8298 22.776 16.8911 22.776ZM23.1208 22.776C22.1973 22.776 21.4356 22.034 21.4356 21.1239C21.4356 20.2127 22.1821 19.4707 23.1208 19.4707C24.0665 19.4707 24.8211 20.2189 24.8059 21.1239C24.8059 22.034 24.0665 22.776 23.1208 22.776Z" fill="black"/>
</svg>
