<svg width="163" height="44" viewBox="0 0 163 44" fill="none" xmlns="http://www.w3.org/2000/svg">
<path d="M42.8919 13.35H30.65V6.53784C30.65 2.93243 27.7189 0 24.1149 0H14.45C14.0676 0 13.7324 0.193242 13.5338 0.487837C13.4135 0.666215 13.3446 0.878378 13.3446 1.10676V13.3514H6.53514C2.93378 13.3514 0 16.2824 0 19.8838V29.5514C0 30.1608 0.495946 30.6581 1.10676 30.6581H13.3459V37.4676C13.3459 41.073 16.2797 44.0027 19.8811 44.0027H29.5459C30.1554 44.0027 30.6527 43.5095 30.6527 42.896V30.6568H37.4622C41.0676 30.6568 44 27.723 44 24.1189V14.4568C43.9986 13.8432 43.5014 13.35 42.8919 13.35ZM20.9324 28.4446C19.4 28.4446 18.15 27.196 18.15 25.6595C18.15 24.127 19.4 22.877 20.9324 22.877C21.1635 22.877 21.3905 22.9027 21.6122 22.9595C21.9892 23.0554 22.3851 22.9446 22.6595 22.6703C22.9365 22.3932 23.0473 21.996 22.9514 21.6189C22.8959 21.3973 22.8689 21.1689 22.8689 20.9392C22.8689 19.4068 24.1189 18.1541 25.6514 18.1541C27.1865 18.1541 28.4365 19.4068 28.4365 20.9392V28.4433H20.9324V28.4446ZM41.7851 24.1189C41.7851 26.5041 39.8473 28.4446 37.4595 28.4446H30.65V20.9405C30.65 18.1851 28.4081 15.9432 25.6527 15.9432C22.9905 15.9432 20.8041 18.0419 20.6676 20.6716C18.0351 20.8122 15.9392 22.9946 15.9392 25.6595C15.9392 26.7838 16.3135 27.823 16.9405 28.6568C17.227 29.0392 17.5649 29.3784 17.9473 29.6608C18.7797 30.2851 19.8149 30.6568 20.9338 30.6568H28.4378V41.7892H19.8797C17.4946 41.7892 15.5568 39.8514 15.5568 37.4662V29.55C15.5568 29.2811 15.4608 29.0365 15.3027 28.8459C15.2824 28.8162 15.2554 28.7932 15.2324 28.7676C15.0311 28.5662 14.7541 28.4433 14.45 28.4433H2.21081V19.8824C2.21081 17.5 4.14865 15.5622 6.53378 15.5622H14.45C15.0595 15.5622 15.5568 15.0662 15.5568 14.4554V2.21081H24.1149C26.4973 2.21081 28.4378 4.15135 28.4378 6.53649V14.4554C28.4378 15.0649 28.9338 15.5622 29.5446 15.5622H41.7865V24.1189H41.7851Z" fill="white"/>
<path d="M63.3862 31.0015C62.9862 31.0015 62.6262 30.9215 62.3062 30.7615C61.9862 30.5855 61.8262 30.3295 61.8262 29.9935V16.2655H58.2982C57.9942 16.2655 57.7542 16.1215 57.5782 15.8335C57.4022 15.5455 57.3142 15.2175 57.3142 14.8495C57.3142 14.5135 57.3942 14.2015 57.5542 13.9135C57.7142 13.6095 57.9622 13.4575 58.2982 13.4575H68.4502C68.8022 13.4575 69.0502 13.6095 69.1942 13.9135C69.3542 14.2015 69.4342 14.5135 69.4342 14.8495C69.4342 15.2175 69.3462 15.5455 69.1702 15.8335C69.0102 16.1215 68.7702 16.2655 68.4502 16.2655H64.9462V29.9935C64.9462 30.3295 64.7782 30.5855 64.4422 30.7615C64.1222 30.9215 63.7702 31.0015 63.3862 31.0015ZM72.9487 31.0015C72.6127 31.0015 72.3007 30.9215 72.0127 30.7615C71.7247 30.5855 71.5807 30.3295 71.5807 29.9935V14.4655C71.5807 14.1295 71.7247 13.8815 72.0127 13.7215C72.3007 13.5455 72.6127 13.4575 72.9487 13.4575H81.4927C81.8447 13.4575 82.0927 13.6015 82.2367 13.8895C82.3967 14.1775 82.4767 14.4815 82.4767 14.8015C82.4767 15.1855 82.3887 15.5135 82.2127 15.7855C82.0527 16.0575 81.8127 16.1935 81.4927 16.1935H74.7007V20.9935H78.3487C78.6687 20.9935 78.9087 21.1215 79.0687 21.3775C79.2447 21.6175 79.3327 21.9055 79.3327 22.2415C79.3327 22.5135 79.2527 22.7855 79.0927 23.0575C78.9487 23.3135 78.7007 23.4415 78.3487 23.4415H74.7007V28.2655H81.4927C81.8127 28.2655 82.0527 28.4015 82.2127 28.6735C82.3887 28.9455 82.4767 29.2735 82.4767 29.6575C82.4767 29.9775 82.3967 30.2815 82.2367 30.5695C82.0927 30.8575 81.8447 31.0015 81.4927 31.0015H72.9487ZM84.5953 31.0015C84.2753 31.0015 84.0353 30.9215 83.8753 30.7615C83.7313 30.6015 83.6593 30.3935 83.6593 30.1375C83.6593 29.8015 83.7713 29.4415 83.9953 29.0575L91.1233 16.1935H85.0513C84.7473 16.1935 84.5073 16.0575 84.3313 15.7855C84.1713 15.5135 84.0913 15.1935 84.0913 14.8255C84.0913 14.4895 84.1633 14.1775 84.3073 13.8895C84.4673 13.6015 84.7153 13.4575 85.0513 13.4575H94.1713C94.4913 13.4575 94.7233 13.5375 94.8673 13.6975C95.0273 13.8575 95.1073 14.0575 95.1073 14.2975C95.1073 14.6335 94.9873 15.0095 94.7473 15.4255L87.6433 28.2655H94.5553C94.8753 28.2655 95.1153 28.4175 95.2753 28.7215C95.4513 29.0095 95.5393 29.3135 95.5393 29.6335C95.5393 29.9535 95.4513 30.2655 95.2753 30.5695C95.1153 30.8575 94.8753 31.0015 94.5553 31.0015H84.5953ZM107.701 31.2175C106.661 31.2175 105.717 31.0655 104.869 30.7615C104.037 30.4575 103.373 30.0815 102.877 29.6335C102.397 29.1695 102.157 28.7055 102.157 28.2415C102.157 28.0175 102.213 27.7775 102.325 27.5215C102.453 27.2495 102.621 27.0255 102.829 26.8495C103.037 26.6575 103.269 26.5615 103.525 26.5615C103.781 26.5615 104.021 26.6575 104.245 26.8495C104.469 27.0255 104.725 27.2415 105.013 27.4975C105.301 27.7375 105.653 27.9535 106.069 28.1455C106.485 28.3215 106.997 28.4095 107.605 28.4095C108.085 28.4095 108.525 28.3375 108.925 28.1935C109.341 28.0335 109.669 27.8015 109.909 27.4975C110.165 27.1935 110.293 26.8015 110.293 26.3215C110.293 25.8095 110.157 25.3775 109.885 25.0255C109.613 24.6735 109.245 24.3695 108.781 24.1135C108.317 23.8575 107.813 23.6095 107.269 23.3695C106.725 23.1295 106.173 22.8735 105.613 22.6015C105.069 22.3295 104.565 22.0015 104.101 21.6175C103.653 21.2335 103.285 20.7615 102.997 20.2015C102.725 19.6415 102.589 18.9535 102.589 18.1375C102.589 17.2415 102.757 16.4895 103.093 15.8815C103.445 15.2735 103.901 14.7855 104.461 14.4175C105.037 14.0335 105.669 13.7615 106.357 13.6015C107.045 13.4255 107.733 13.3375 108.421 13.3375C108.789 13.3375 109.221 13.3695 109.717 13.4335C110.229 13.4815 110.733 13.5775 111.229 13.7215C111.741 13.8655 112.157 14.0655 112.477 14.3215C112.813 14.5615 112.981 14.8815 112.981 15.2815C112.981 15.4575 112.933 15.6735 112.837 15.9295C112.757 16.1855 112.621 16.4175 112.429 16.6255C112.253 16.8335 112.021 16.9375 111.733 16.9375C111.477 16.9375 111.221 16.8655 110.965 16.7215C110.725 16.5615 110.405 16.4095 110.005 16.2655C109.621 16.1055 109.093 16.0255 108.421 16.0255C107.861 16.0255 107.373 16.0975 106.957 16.2415C106.541 16.3855 106.229 16.5935 106.021 16.8655C105.813 17.1215 105.709 17.4495 105.709 17.8495C105.709 18.2655 105.845 18.6175 106.117 18.9055C106.405 19.1935 106.773 19.4495 107.221 19.6735C107.685 19.8975 108.189 20.1215 108.733 20.3455C109.277 20.5695 109.821 20.8335 110.365 21.1375C110.925 21.4255 111.437 21.7775 111.901 22.1935C112.365 22.6095 112.733 23.1295 113.005 23.7535C113.277 24.3615 113.413 25.1135 113.413 26.0095C113.413 27.1455 113.165 28.1055 112.669 28.8895C112.173 29.6575 111.493 30.2415 110.629 30.6415C109.781 31.0255 108.805 31.2175 107.701 31.2175ZM117.6 31.0015C117.216 31.0015 116.856 30.9215 116.52 30.7615C116.2 30.5855 116.04 30.3295 116.04 29.9935V14.4415C116.04 14.0895 116.2 13.8415 116.52 13.6975C116.856 13.5375 117.216 13.4575 117.6 13.4575C118 13.4575 118.36 13.5375 118.68 13.6975C119 13.8415 119.16 14.0895 119.16 14.4415V20.6815H124.56V14.4415C124.56 14.0895 124.72 13.8415 125.04 13.6975C125.376 13.5375 125.736 13.4575 126.12 13.4575C126.52 13.4575 126.88 13.5375 127.2 13.6975C127.52 13.8415 127.68 14.0895 127.68 14.4415V29.9935C127.68 30.3295 127.52 30.5855 127.2 30.7615C126.88 30.9215 126.52 31.0015 126.12 31.0015C125.736 31.0015 125.376 30.9215 125.04 30.7615C124.72 30.5855 124.56 30.3295 124.56 29.9935V23.1295H119.16V29.9935C119.16 30.3295 119 30.5855 118.68 30.7615C118.36 30.9215 118 31.0015 117.6 31.0015ZM132.634 31.0015C132.25 31.0015 131.89 30.9215 131.554 30.7615C131.234 30.5855 131.074 30.3295 131.074 29.9935V14.4415C131.074 14.0895 131.234 13.8415 131.554 13.6975C131.89 13.5375 132.25 13.4575 132.634 13.4575C133.034 13.4575 133.394 13.5375 133.714 13.6975C134.034 13.8415 134.194 14.0895 134.194 14.4415V29.9935C134.194 30.3295 134.034 30.5855 133.714 30.7615C133.394 30.9215 133.034 31.0015 132.634 31.0015ZM139.138 31.0015C138.754 31.0015 138.394 30.9215 138.058 30.7615C137.738 30.5855 137.578 30.3375 137.578 30.0175V14.4655C137.578 14.1295 137.722 13.8815 138.01 13.7215C138.298 13.5455 138.61 13.4575 138.946 13.4575H147.322C147.674 13.4575 147.922 13.6015 148.066 13.8895C148.226 14.1775 148.306 14.4815 148.306 14.8015C148.306 15.1855 148.218 15.5135 148.042 15.7855C147.882 16.0575 147.642 16.1935 147.322 16.1935H140.698V20.9935H144.37C144.69 20.9935 144.93 21.1215 145.09 21.3775C145.266 21.6175 145.354 21.9055 145.354 22.2415C145.354 22.5135 145.274 22.7855 145.114 23.0575C144.97 23.3135 144.722 23.4415 144.37 23.4415H140.698V30.0175C140.698 30.3375 140.538 30.5855 140.218 30.7615C139.898 30.9215 139.538 31.0015 139.138 31.0015ZM155.459 31.1455C154.403 31.1455 153.451 30.9695 152.603 30.6175C151.755 30.2495 151.075 29.6655 150.563 28.8655C150.067 28.0495 149.819 26.9695 149.819 25.6255V18.9775C149.819 17.6335 150.067 16.5615 150.563 15.7615C151.075 14.9455 151.747 14.3615 152.579 14.0095C153.427 13.6415 154.387 13.4575 155.459 13.4575C156.515 13.4575 157.467 13.6415 158.315 14.0095C159.179 14.3615 159.859 14.9455 160.355 15.7615C160.851 16.5615 161.099 17.6335 161.099 18.9775V25.6255C161.099 26.9695 160.851 28.0495 160.355 28.8655C159.859 29.6655 159.179 30.2495 158.315 30.6175C157.467 30.9695 156.515 31.1455 155.459 31.1455ZM155.459 28.4095C156.243 28.4095 156.859 28.1855 157.307 27.7375C157.755 27.2895 157.979 26.5855 157.979 25.6255V18.9775C157.979 18.0175 157.755 17.3135 157.307 16.8655C156.859 16.4175 156.243 16.1935 155.459 16.1935C154.675 16.1935 154.059 16.4175 153.611 16.8655C153.179 17.3135 152.963 18.0175 152.963 18.9775V25.6255C152.963 26.5855 153.179 27.2895 153.611 27.7375C154.059 28.1855 154.675 28.4095 155.459 28.4095Z" fill="white"/>
</svg>
