<svg width="116" height="28" viewBox="0 0 116 28" fill="none" xmlns="http://www.w3.org/2000/svg">
<path d="M58.2406 15.2815C55.8886 15.2815 53.9716 17.0695 53.9716 19.5345C53.9716 21.9835 55.8886 23.7875 58.2406 23.7875C60.5926 23.7875 62.5096 21.9835 62.5096 19.5345C62.5096 17.0695 60.5926 15.2815 58.2406 15.2815ZM58.2406 22.1125C56.9516 22.1125 55.8396 21.0495 55.8396 19.5345C55.8396 18.0035 56.9516 16.9565 58.2406 16.9565C59.5296 16.9565 60.6406 18.0035 60.6406 19.5345C60.6406 21.0485 59.5296 22.1125 58.2406 22.1125ZM48.9266 15.2815C46.5746 15.2815 44.6576 17.0695 44.6576 19.5345C44.6576 21.9835 46.5746 23.7875 48.9266 23.7875C51.2786 23.7875 53.1956 21.9835 53.1956 19.5345C53.1966 17.0695 51.2786 15.2815 48.9266 15.2815ZM48.9266 22.1125C47.6376 22.1125 46.5266 21.0495 46.5266 19.5345C46.5266 18.0035 47.6386 16.9565 48.9266 16.9565C50.2156 16.9565 51.3266 18.0035 51.3266 19.5345C51.3276 21.0485 50.2156 22.1125 48.9266 22.1125ZM37.8486 18.3905H42.1666C42.0376 19.4055 41.6996 20.1465 41.1836 20.6625C40.5556 21.2905 39.5726 21.9835 37.8486 21.9835C35.1906 21.9835 33.1126 19.8405 33.1126 17.1825C33.1126 14.5245 35.1906 12.3815 37.8486 12.3815C39.2826 12.3815 40.3296 12.9455 41.1026 13.6705L42.3756 12.3975C41.2966 11.3665 39.8626 10.5765 37.8486 10.5765C34.2076 10.5765 31.1466 13.5405 31.1466 17.1815C31.1466 20.8225 34.2076 23.7865 37.8486 23.7865C39.8136 23.7865 41.2966 23.1425 42.4566 21.9335C43.6486 20.7415 44.0196 19.0655 44.0196 17.7125C44.0196 17.2935 43.9876 16.9065 43.9226 16.5845H37.8486V18.3905ZM83.1566 17.9875C82.8026 17.0365 81.7226 15.2805 79.5156 15.2805C77.3246 15.2805 75.5046 17.0045 75.5046 19.5335C75.5046 21.9175 77.3086 23.7865 79.7256 23.7865C81.6746 23.7865 82.8026 22.5945 83.2696 21.9015L81.8196 20.9345C81.3366 21.6435 80.6756 22.1105 79.7256 22.1105C78.7746 22.1105 78.0986 21.6755 77.6636 20.8215L83.3506 18.4695L83.1566 17.9875ZM77.3566 19.4055C77.3086 17.7625 78.6296 16.9245 79.5796 16.9245C80.3206 16.9245 80.9486 17.2945 81.1586 17.8265L77.3566 19.4055ZM72.7326 23.5295H74.6016V11.0285H72.7326V23.5295ZM69.6716 16.2315H69.6076C69.1886 15.7325 68.3836 15.2805 67.3686 15.2805C65.2416 15.2805 63.2926 17.1495 63.2926 19.5495C63.2926 21.9335 65.2416 23.7865 67.3686 23.7865C68.3836 23.7865 69.1886 23.3355 69.6076 22.8195H69.6716V23.4315C69.6716 25.0585 68.8016 25.9285 67.3996 25.9285C66.2556 25.9285 65.5466 25.1065 65.2566 24.4145L63.6296 25.0915C64.0966 26.2195 65.3376 27.6045 67.3996 27.6045C69.5906 27.6045 71.4436 26.3155 71.4436 23.1745V15.5385H69.6716V16.2315ZM67.5296 22.1125C66.2406 22.1125 65.1616 21.0335 65.1616 19.5505C65.1616 18.0525 66.2406 16.9565 67.5296 16.9565C68.8026 16.9565 69.8006 18.0515 69.8006 19.5505C69.8006 21.0325 68.8026 22.1125 67.5296 22.1125ZM91.9106 11.0285H87.4396V23.5295H89.3046V18.7935H91.9096C93.9776 18.7935 96.0106 17.2965 96.0106 14.9115C96.0106 12.5265 93.9786 11.0285 91.9106 11.0285ZM91.9586 17.0535H89.3046V12.7685H91.9586C93.3536 12.7685 94.1456 13.9235 94.1456 14.9115C94.1456 15.8795 93.3536 17.0535 91.9586 17.0535ZM103.491 15.2585C102.14 15.2585 100.741 15.8535 100.162 17.1725L101.819 17.8645C102.173 17.1725 102.832 16.9475 103.524 16.9475C104.489 16.9475 105.47 17.5265 105.486 18.5555V18.6845C105.148 18.4915 104.424 18.2015 103.54 18.2015C101.755 18.2015 99.9366 19.1825 99.9366 21.0165C99.9366 22.6895 101.401 23.7665 103.041 23.7665C104.296 23.7665 104.987 23.2035 105.421 22.5445H105.485V23.5095H107.286V18.7165C107.286 16.4965 105.63 15.2585 103.491 15.2585ZM103.265 22.1095C102.654 22.1095 101.801 21.8035 101.801 21.0485C101.801 20.0835 102.863 19.7135 103.779 19.7135C104.599 19.7135 104.985 19.8905 105.484 20.1315C105.34 21.2895 104.343 22.1095 103.265 22.1095ZM113.848 15.5315L111.709 20.9515H111.645L109.426 15.5315H107.416L110.745 23.1065L108.847 27.3205H110.793L115.924 15.5315H113.848ZM97.0406 23.5295H98.9066V11.0285H97.0406V23.5295Z" fill="black"/>
<path d="M37.4796 3.32051H34.5716V4.04151H36.7506C36.6916 4.62751 36.4566 5.08851 36.0636 5.42351C35.6696 5.75851 35.1666 5.92651 34.5716 5.92651C33.9176 5.92651 33.3646 5.70051 32.9126 5.24751C32.4686 4.78651 32.2416 4.21751 32.2416 3.52951C32.2416 2.84251 32.4686 2.27251 32.9126 1.81151C33.3646 1.35951 33.9176 1.13351 34.5716 1.13351C34.9066 1.13351 35.2256 1.19151 35.5186 1.31751C35.8116 1.44351 36.0466 1.61951 36.2306 1.84551L36.7836 1.29251C36.5326 1.00751 36.2136 0.789508 35.8206 0.630507C35.4266 0.471507 35.0156 0.395508 34.5716 0.395508C33.6996 0.395508 32.9626 0.697508 32.3596 1.30051C31.7556 1.90451 31.4546 2.64951 31.4546 3.52951C31.4546 4.40951 31.7556 5.15551 32.3596 5.75851C32.9626 6.36251 33.6996 6.66351 34.5716 6.66351C35.4846 6.66351 36.2136 6.37051 36.7756 5.77551C37.2696 5.28151 37.5216 4.61051 37.5216 3.77251C37.5216 3.63051 37.5046 3.47951 37.4796 3.32051Z" fill="black"/>
<path d="M38.6276 0.52951V6.52951H42.1306V5.79251H39.3986V3.89051H41.8616V3.16951H39.3986V1.26751H42.1306V0.52951H38.6276Z" fill="black"/>
<path d="M47.0566 1.26751V0.52951H42.9336V1.26751H44.6096V6.52951H45.3806V1.26751H47.0566Z" fill="black"/>
<path d="M50.8115 0.52951H50.0405V6.52951H50.8115V0.52951Z" fill="black"/>
<path d="M55.9066 1.26751V0.52951H51.7836V1.26751H53.4596V6.52951H54.2306V1.26751H55.9066Z" fill="black"/>
<path d="M63.7086 1.30951C63.1136 0.697507 62.3846 0.395508 61.5126 0.395508C60.6416 0.395508 59.9116 0.697508 59.3166 1.30051C58.7216 1.89551 58.4286 2.64151 58.4286 3.52951C58.4286 4.41851 58.7216 5.16351 59.3166 5.75851C59.9116 6.36251 60.6416 6.66351 61.5126 6.66351C62.3756 6.66351 63.1136 6.36251 63.7086 5.75851C64.3036 5.16351 64.5966 4.41851 64.5966 3.52951C64.5966 2.64951 64.3036 1.90451 63.7086 1.30951ZM59.8706 1.81151C60.3146 1.35951 60.8586 1.13351 61.5126 1.13351C62.1666 1.13351 62.7106 1.35951 63.1466 1.81151C63.5906 2.25651 63.8086 2.83451 63.8086 3.52951C63.8086 4.22551 63.5906 4.80351 63.1466 5.24751C62.7106 5.70051 62.1666 5.92651 61.5126 5.92651C60.8586 5.92651 60.3146 5.70051 59.8706 5.24751C59.4346 4.79551 59.2166 4.22551 59.2166 3.52951C59.2166 2.83451 59.4346 2.26451 59.8706 1.81151Z" fill="black"/>
<path d="M66.4486 2.79251L66.4156 1.63551H66.4486L69.4996 6.52951H70.3036V0.52951H69.5326V4.04151L69.5666 5.19751H69.5326L66.6166 0.52951H65.6786V6.52951H66.4486V2.79251Z" fill="black"/>
<path d="M10.821 12.9539L0.17395 24.2539C0.17495 24.2559 0.17495 24.2579 0.17595 24.2599C0.50195 25.4879 1.62295 26.3909 2.95295 26.3909C3.48495 26.3909 3.98395 26.2469 4.41195 25.9949L4.44595 25.9749L16.43 19.0599L10.821 12.9539Z" fill="#EB4335"/>
<path d="M21.5932 11.0299L21.5832 11.0229L16.4092 8.02295L10.5802 13.2099L16.4292 19.0579L21.5762 16.0889C22.4782 15.6019 23.0902 14.6509 23.0902 13.5539C23.0902 12.4649 22.4862 11.5179 21.5932 11.0299Z" fill="#FABC13"/>
<path d="M0.174294 2.80688C0.110294 3.04288 0.0762939 3.28988 0.0762939 3.54688V23.5139C0.0762939 23.7709 0.10895 24.0189 0.17395 24.2539L11.1873 13.2429L0.174294 2.80688Z" fill="#547DBF"/>
<path d="M10.899 13.5299L16.41 8.02092L4.43895 1.08092C4.00395 0.819922 3.49695 0.669922 2.95295 0.669922C1.62295 0.669922 0.50095 1.57492 0.17395 2.80392L0.174294 2.80688L10.899 13.5299Z" fill="#30A851"/>
</svg>
