<svg width="40" height="41" viewBox="0 0 40 41" fill="none" xmlns="http://www.w3.org/2000/svg">
<circle cx="20" cy="20.5" r="20" fill="white"/>
<path fill-rule="evenodd" clip-rule="evenodd" d="M15.8773 10.56C16.9436 10.5109 17.2836 10.5 20 10.5C22.7164 10.5 23.0564 10.5118 24.1218 10.56C25.1873 10.6082 25.9145 10.7782 26.5509 11.0245C27.2173 11.2764 27.8218 11.67 28.3218 12.1791C28.8309 12.6782 29.2236 13.2818 29.4745 13.9491C29.7218 14.5855 29.8909 15.3127 29.94 16.3764C29.9891 17.4445 30 17.7845 30 20.5C30 23.2164 29.9882 23.5564 29.94 24.6227C29.8918 25.6864 29.7218 26.4136 29.4745 27.05C29.2236 27.7174 28.8303 28.322 28.3218 28.8218C27.8218 29.3309 27.2173 29.7236 26.5509 29.9745C25.9145 30.2218 25.1873 30.3909 24.1236 30.44C23.0564 30.4891 22.7164 30.5 20 30.5C17.2836 30.5 16.9436 30.4882 15.8773 30.44C14.8136 30.3918 14.0864 30.2218 13.45 29.9745C12.7827 29.7236 12.178 29.3302 11.6782 28.8218C11.1694 28.3224 10.7757 27.7181 10.5245 27.0509C10.2782 26.4145 10.1091 25.6873 10.06 24.6236C10.0109 23.5555 10 23.2155 10 20.5C10 17.7836 10.0118 17.4436 10.06 16.3782C10.1082 15.3127 10.2782 14.5855 10.5245 13.9491C10.7761 13.2819 11.1701 12.6776 11.6791 12.1782C12.1782 11.6695 12.7822 11.2759 13.4491 11.0245C14.0855 10.7782 14.8127 10.6091 15.8764 10.56H15.8773ZM24.0409 12.36C22.9864 12.3118 22.67 12.3018 20 12.3018C17.33 12.3018 17.0136 12.3118 15.9591 12.36C14.9836 12.4045 14.4545 12.5673 14.1018 12.7045C13.6355 12.8864 13.3018 13.1018 12.9518 13.4518C12.62 13.7746 12.3647 14.1675 12.2045 14.6018C12.0673 14.9545 11.9045 15.4836 11.86 16.4591C11.8118 17.5136 11.8018 17.83 11.8018 20.5C11.8018 23.17 11.8118 23.4864 11.86 24.5409C11.9045 25.5164 12.0673 26.0455 12.2045 26.3982C12.3645 26.8318 12.62 27.2255 12.9518 27.5482C13.2745 27.88 13.6682 28.1355 14.1018 28.2955C14.4545 28.4327 14.9836 28.5955 15.9591 28.64C17.0136 28.6882 17.3291 28.6982 20 28.6982C22.6709 28.6982 22.9864 28.6882 24.0409 28.64C25.0164 28.5955 25.5455 28.4327 25.8982 28.2955C26.3645 28.1136 26.6982 27.8982 27.0482 27.5482C27.38 27.2255 27.6355 26.8318 27.7955 26.3982C27.9327 26.0455 28.0955 25.5164 28.14 24.5409C28.1882 23.4864 28.1982 23.17 28.1982 20.5C28.1982 17.83 28.1882 17.5136 28.14 16.4591C28.0955 15.4836 27.9327 14.9545 27.7955 14.6018C27.6136 14.1355 27.3982 13.8018 27.0482 13.4518C26.7254 13.1201 26.3325 12.8647 25.8982 12.7045C25.5455 12.5673 25.0164 12.4045 24.0409 12.36ZM18.7227 23.5827C19.4361 23.8797 20.2303 23.9197 20.9699 23.6961C21.7095 23.4725 22.3485 22.999 22.7778 22.3566C23.2071 21.7142 23.4001 20.9426 23.3237 20.1737C23.2473 19.4049 22.9064 18.6863 22.3591 18.1409C22.0102 17.7923 21.5884 17.5253 21.1239 17.3592C20.6595 17.1932 20.164 17.1321 19.6732 17.1806C19.1823 17.229 18.7083 17.3856 18.2853 17.6392C17.8622 17.8928 17.5007 18.237 17.2266 18.6471C16.9526 19.0572 16.7729 19.523 16.7005 20.0109C16.628 20.4988 16.6647 20.9966 16.8078 21.4687C16.9508 21.9407 17.1968 22.3751 17.5279 22.7407C17.8591 23.1062 18.2671 23.3938 18.7227 23.5827ZM16.3655 16.8655C16.8428 16.3882 17.4094 16.0095 18.033 15.7512C18.6566 15.4929 19.325 15.36 20 15.36C20.675 15.36 21.3434 15.4929 21.967 15.7512C22.5906 16.0095 23.1573 16.3882 23.6345 16.8655C24.1118 17.3428 24.4905 17.9094 24.7488 18.533C25.0071 19.1566 25.14 19.825 25.14 20.5C25.14 21.175 25.0071 21.8434 24.7488 22.467C24.4905 23.0906 24.1118 23.6573 23.6345 24.1345C22.6706 25.0985 21.3632 25.64 20 25.64C18.6368 25.64 17.3294 25.0985 16.3655 24.1345C15.4015 23.1706 14.86 21.8632 14.86 20.5C14.86 19.1368 15.4015 17.8294 16.3655 16.8655ZM26.28 16.1255C26.3983 16.0139 26.493 15.8797 26.5585 15.7309C26.624 15.5821 26.6589 15.4216 26.6613 15.259C26.6637 15.0964 26.6334 14.935 26.5723 14.7844C26.5111 14.6337 26.4204 14.4968 26.3054 14.3819C26.1904 14.2669 26.0536 14.1761 25.9029 14.115C25.7522 14.0539 25.5908 14.0236 25.4282 14.026C25.2657 14.0284 25.1052 14.0633 24.9564 14.1288C24.8076 14.1943 24.6734 14.289 24.5618 14.4073C24.3448 14.6373 24.226 14.9428 24.2306 15.259C24.2352 15.5752 24.3629 15.8772 24.5865 16.1008C24.8101 16.3244 25.1121 16.452 25.4282 16.4566C25.7444 16.4612 26.05 16.3424 26.28 16.1255Z" fill="black"/>
</svg>
