<svg width="40" height="40" viewBox="0 0 40 40" fill="none" xmlns="http://www.w3.org/2000/svg">
<rect y="0.00268555" width="40" height="40" rx="20" fill="white" fill-opacity="0.1"/>
<path fill-rule="evenodd" clip-rule="evenodd" d="M19.9933 12.0027C17.8218 12.0027 17.5487 12.0027 16.6961 12.0494C15.8501 12.0895 15.2639 12.223 14.7644 12.4232C14.2315 12.6235 13.7785 12.9038 13.3322 13.3377C12.9059 13.8049 12.6328 14.2455 12.4263 14.7728C12.2265 15.2801 12.0933 15.8675 12.0533 16.7086C12 17.5763 12 17.8433 12 20.0127C12 22.1821 12 22.4624 12.0466 23.3168C12.0866 24.1646 12.2198 24.752 12.4197 25.2526C12.6195 25.7866 12.8993 26.2338 13.3389 26.681C13.8052 27.0949 14.2581 27.3686 14.7843 27.5755C15.2906 27.7757 15.8768 27.9092 16.7161 27.9493C17.582 27.996 17.8485 28.0027 20.02 28.0027C22.1915 28.0027 22.4713 28.0027 23.3239 27.9493C24.1632 27.9092 24.7494 27.7757 25.2556 27.5755C25.7885 27.3752 26.2281 27.0949 26.6744 26.6543C27.1074 26.2004 27.3805 25.7532 27.587 25.2259C27.7868 24.7186 27.9201 24.1312 27.9534 23.2901C27.9933 22.4224 28 22.1554 28 19.9793C28 17.8033 28 17.5296 27.9534 16.6752C27.9134 15.8408 27.7802 15.2534 27.5803 14.7394C27.3805 14.2054 27.0874 13.7716 26.6478 13.3243C26.1882 12.8704 25.7552 12.6034 25.229 12.4032C24.7227 12.2029 24.1366 12.0694 23.2973 12.0227C22.438 12.0027 22.1715 12.0027 19.9933 12.0027ZM19.9933 13.4445C22.1249 13.4445 22.378 13.4445 23.224 13.4912C24.0033 13.5313 24.423 13.6581 24.7094 13.7716C25.0824 13.9051 25.3489 14.0853 25.6286 14.3723C25.9084 14.6393 26.0816 14.9063 26.2281 15.2868C26.3347 15.5738 26.4613 15.9943 26.4946 16.7753C26.5412 17.623 26.5479 17.8767 26.5479 20.0127C26.5479 22.1487 26.5479 22.4024 26.5012 23.2501C26.4613 24.0311 26.3347 24.4516 26.2215 24.7386C26.0883 25.1124 25.9084 25.3794 25.622 25.6598C25.3555 25.9401 25.0891 26.1137 24.7094 26.2605C24.423 26.3673 24.0033 26.4941 23.224 26.5275C22.378 26.5742 22.1249 26.5809 19.9933 26.5809C17.8618 26.5809 17.6087 26.5809 16.7627 26.5342C15.9833 26.4941 15.5637 26.3673 15.2773 26.2538C14.9042 26.1203 14.6378 25.9401 14.358 25.6531C14.0783 25.3861 13.9051 25.1191 13.7585 24.7386C13.652 24.4516 13.5254 24.0311 13.4921 23.2501C13.4455 22.4024 13.4388 22.1487 13.4388 20.0127C13.4388 17.8767 13.4388 17.623 13.4854 16.7753C13.5254 15.9943 13.652 15.5738 13.7652 15.2868C13.8984 14.913 14.0783 14.646 14.3647 14.3656C14.6311 14.0853 14.8976 13.9117 15.2773 13.7649C15.5637 13.6581 15.9833 13.5313 16.7627 13.4979C17.6087 13.4512 17.8618 13.4445 19.9933 13.4445ZM15.8901 20.0127C15.8901 17.7432 17.7286 15.9009 19.9933 15.9009C22.2581 15.9009 24.0966 17.7432 24.0966 20.0127C24.0966 22.2822 22.2581 24.1245 19.9933 24.1245C17.7286 24.1245 15.8901 22.2822 15.8901 20.0127ZM19.9933 22.6827C18.5279 22.6827 17.3289 21.4812 17.3289 20.0127C17.3289 18.5442 18.5279 17.3427 19.9933 17.3427C21.4588 17.3427 22.6578 18.5442 22.6578 20.0127C22.6578 21.4812 21.4588 22.6827 19.9933 22.6827ZM24.2631 16.6952C24.7893 16.6952 25.2223 16.2747 25.2223 15.7407L25.2556 15.7073C25.2556 15.18 24.8226 14.7461 24.2898 14.7461C23.7569 14.7461 23.3306 15.2 23.3306 15.734C23.3306 16.268 23.7302 16.6952 24.2631 16.6952Z" fill="white"/>
</svg>
