<svg width="44" height="44" viewBox="0 0 44 44" fill="none" xmlns="http://www.w3.org/2000/svg">
<path d="M42.8919 13.3485H30.65V6.53637C30.65 2.93097 27.7189 -0.00146484 24.1149 -0.00146484H14.45C14.0676 -0.00146484 13.7324 0.191777 13.5338 0.486372C13.4135 0.664751 13.3446 0.876913 13.3446 1.10529V13.3499H6.53514C2.93378 13.3499 0 16.281 0 19.8823V29.5499C0 30.1593 0.495946 30.6566 1.10676 30.6566H13.3459V37.4661C13.3459 41.0715 16.2797 44.0012 19.8811 44.0012H29.5459C30.1554 44.0012 30.6527 43.508 30.6527 42.8945V30.6553H37.4622C41.0676 30.6553 44 27.7215 44 24.1175V14.4553C43.9986 13.8418 43.5014 13.3485 42.8919 13.3485ZM20.9324 28.4431C19.4 28.4431 18.15 27.1945 18.15 25.658C18.15 24.1256 19.4 22.8756 20.9324 22.8756C21.1635 22.8756 21.3905 22.9012 21.6122 22.958C21.9892 23.0539 22.3851 22.9431 22.6595 22.6688C22.9365 22.3918 23.0473 21.9945 22.9514 21.6175C22.8959 21.3958 22.8689 21.1675 22.8689 20.9377C22.8689 19.4053 24.1189 18.1526 25.6514 18.1526C27.1865 18.1526 28.4365 19.4053 28.4365 20.9377V28.4418H20.9324V28.4431ZM41.7851 24.1175C41.7851 26.5026 39.8473 28.4431 37.4595 28.4431H30.65V20.9391C30.65 18.1837 28.4081 15.9418 25.6527 15.9418C22.9905 15.9418 20.8041 18.0404 20.6676 20.6702C18.0351 20.8107 15.9392 22.9931 15.9392 25.658C15.9392 26.7823 16.3135 27.8215 16.9405 28.6553C17.227 29.0377 17.5649 29.3769 17.9473 29.6593C18.7797 30.2837 19.8149 30.6553 20.9338 30.6553H28.4378V41.7877H19.8797C17.4946 41.7877 15.5568 39.8499 15.5568 37.4648V29.5485C15.5568 29.2796 15.4608 29.035 15.3027 28.8445C15.2824 28.8148 15.2554 28.7918 15.2324 28.7661C15.0311 28.5648 14.7541 28.4418 14.45 28.4418H2.21081V19.881C2.21081 17.4985 4.14865 15.5607 6.53378 15.5607H14.45C15.0595 15.5607 15.5568 15.0648 15.5568 14.4539V2.20935H24.1149C26.4973 2.20935 28.4378 4.14989 28.4378 6.53502V14.4539C28.4378 15.0634 28.9338 15.5607 29.5446 15.5607H41.7865V24.1175H41.7851Z" fill="white"/>
</svg>
