<svg width="68" height="68" viewBox="0 0 68 68" fill="none" xmlns="http://www.w3.org/2000/svg">
<g filter="url(#filter0_d_0_684)">
<rect x="6" y="6" width="56" height="56" rx="6.72" fill="white"/>
<path d="M50.8761 27.0111H40.9867V21.508C40.9867 18.5955 38.6188 16.2266 35.7074 16.2266H27.8998C27.5908 16.2266 27.3201 16.3827 27.1596 16.6207C27.0625 16.7648 27.0068 16.9361 27.0068 17.1206V27.0122H21.5059C18.5966 27.0122 16.2266 29.3801 16.2266 32.2894V40.0991C16.2266 40.5915 16.6272 40.9932 17.1206 40.9932H27.0079V46.4941C27.0079 49.4067 29.3779 51.7734 32.2872 51.7734H40.0948C40.5871 51.7734 40.9889 51.375 40.9889 50.8794V40.9921H46.4898C49.4023 40.9921 51.7712 38.6221 51.7712 35.7106V27.9052C51.7702 27.4096 51.3684 27.0111 50.8761 27.0111ZM33.1365 39.2051C31.8985 39.2051 30.8887 38.1964 30.8887 36.9551C30.8887 35.7172 31.8985 34.7074 33.1365 34.7074C33.3232 34.7074 33.5066 34.7281 33.6856 34.774C33.9902 34.8515 34.31 34.762 34.5316 34.5404C34.7554 34.3166 34.8449 33.9956 34.7674 33.6911C34.7227 33.512 34.7008 33.3275 34.7008 33.1419C34.7008 31.904 35.7106 30.892 36.9486 30.892C38.1887 30.892 39.1985 31.904 39.1985 33.1419V39.204H33.1365V39.2051ZM49.982 35.7106C49.982 37.6374 48.4166 39.2051 46.4876 39.2051H40.9867V33.143C40.9867 30.9171 39.1756 29.1061 36.9497 29.1061C34.7991 29.1061 33.0328 30.8014 32.9225 32.9258C30.796 33.0393 29.1028 34.8024 29.1028 36.9551C29.1028 37.8634 29.4052 38.7029 29.9117 39.3765C30.1431 39.6854 30.4161 39.9594 30.725 40.1876C31.3975 40.6919 32.2337 40.9921 33.1376 40.9921H39.1996V49.9853H32.2861C30.3593 49.9853 28.7938 48.4198 28.7938 46.493V40.0981C28.7938 39.8808 28.7163 39.6832 28.5886 39.5293C28.5722 39.5053 28.5504 39.4867 28.5318 39.466C28.3692 39.3033 28.1454 39.204 27.8998 39.204H18.0125V32.2883C18.0125 30.3637 19.578 28.7982 21.5048 28.7982H27.8998C28.3921 28.7982 28.7938 28.3976 28.7938 27.9041V18.0125H35.7074C37.632 18.0125 39.1996 19.5802 39.1996 21.507V27.9041C39.1996 28.3965 39.6003 28.7982 40.0937 28.7982H49.9831V35.7106H49.982Z" fill="url(#paint0_linear_0_684)"/>
<path d="M39.1998 40.9922H40.9869V42.6428L39.1998 48.3238V40.9922Z" fill="url(#paint1_linear_0_684)"/>
<path d="M39.1998 39.2052V38.5349L40.9869 34.821V39.2052H39.1998Z" fill="url(#paint2_linear_0_684)"/>
</g>
<defs>
<filter id="filter0_d_0_684" x="0.400001" y="0.400001" width="67.2" height="67.2" filterUnits="userSpaceOnUse" color-interpolation-filters="sRGB">
<feFlood flood-opacity="0" result="BackgroundImageFix"/>
<feColorMatrix in="SourceAlpha" type="matrix" values="0 0 0 0 0 0 0 0 0 0 0 0 0 0 0 0 0 0 127 0" result="hardAlpha"/>
<feOffset/>
<feGaussianBlur stdDeviation="2.8"/>
<feComposite in2="hardAlpha" operator="out"/>
<feColorMatrix type="matrix" values="0 0 0 0 0 0 0 0 0 0 0 0 0 0 0 0 0 0 0.25 0"/>
<feBlend mode="normal" in2="BackgroundImageFix" result="effect1_dropShadow_0_684"/>
<feBlend mode="normal" in="SourceGraphic" in2="effect1_dropShadow_0_684" result="shape"/>
</filter>
<linearGradient id="paint0_linear_0_684" x1="44.3462" y1="21.3895" x2="23.6455" y2="46.611" gradientUnits="userSpaceOnUse">
<stop stop-color="#6156C0"/>
<stop offset="1" stop-color="#71C8CB"/>
</linearGradient>
<linearGradient id="paint1_linear_0_684" x1="40.0285" y1="40.7586" x2="40.116" y2="46.0463" gradientUnits="userSpaceOnUse">
<stop/>
<stop offset="1" stop-opacity="0"/>
</linearGradient>
<linearGradient id="paint2_linear_0_684" x1="40.169" y1="40.506" x2="40.0815" y2="36.4855" gradientUnits="userSpaceOnUse">
<stop/>
<stop offset="1" stop-opacity="0"/>
</linearGradient>
</defs>
</svg>
