<svg width="68" height="68" viewBox="0 0 68 68" fill="none" xmlns="http://www.w3.org/2000/svg">
<g filter="url(#filter0_d_0_699)">
<rect x="6" y="6" width="56" height="56" rx="6.72" fill="white"/>
<path fill-rule="evenodd" clip-rule="evenodd" d="M32.4937 13.9752C31.9525 14.1669 31.1023 14.4681 30.6044 14.6443C30.1066 14.8205 29.469 15.0483 29.1875 15.1504C28.9061 15.2525 27.5955 15.7134 26.275 16.1744C24.9545 16.6356 23.6439 17.0955 23.3625 17.1966C23.0811 17.2977 22.532 17.4929 22.1424 17.6303C21.7527 17.7677 21.1505 17.9808 20.8042 18.1039C19.0948 18.7111 17.5972 19.237 17.0651 19.4169C16.1429 19.7287 16.157 19.7018 16.1761 21.1149C16.2444 26.1486 17.6127 32.3334 19.8634 37.7811C22.3429 43.7826 25.7242 48.6403 29.6568 51.8509C31.0501 52.9883 33.2597 54.3784 33.6744 54.3784C33.9017 54.3784 34.8574 53.8549 35.8967 53.1611C39.2198 50.9428 42.1021 47.7629 44.6262 43.5303C45.2825 42.4298 46.598 39.8475 47.104 38.6666C49.6226 32.7879 51.0697 26.5113 51.1624 21.0627C51.1861 19.6749 51.2359 19.7554 50.1127 19.3668C49.7088 19.227 48.794 18.9056 48.0796 18.6525C47.3653 18.3994 46.214 17.993 45.5213 17.7493C44.8286 17.5058 43.6242 17.0808 42.8449 16.805C42.0656 16.5292 40.507 15.9791 39.3814 15.5825C38.2557 15.1859 36.5448 14.5812 35.5794 14.2388C34.614 13.8965 33.7461 13.6186 33.6509 13.6214C33.5555 13.6241 33.0348 13.7833 32.4937 13.9752ZM33.1234 16.2495C32.1216 16.6119 29.0542 17.6991 28.1249 18.021C27.6053 18.201 26.95 18.4306 26.6686 18.5313C26.3872 18.632 25.3422 19.0007 24.3464 19.3506C23.3507 19.7006 21.6875 20.2886 20.6505 20.6575C19.6135 21.0263 18.7137 21.3281 18.6509 21.3281C18.427 21.3281 18.6157 23.8329 19.0363 26.443C19.8716 31.6283 21.853 37.2768 24.4051 41.7485C26.9569 46.2195 29.9555 49.5158 33.3798 51.614L33.6757 51.7952L34.6787 51.1297C40.4808 47.2792 45.2692 39.3454 47.6465 29.6434C47.8038 29.0016 47.9641 28.2934 48.0026 28.0696C48.0412 27.8458 48.1271 27.3617 48.1934 26.9938C48.5097 25.2392 48.7851 22.857 48.7871 21.8573C48.7882 21.3328 48.9369 21.4341 47.3712 20.8923C46.83 20.705 45.9267 20.3859 45.3639 20.183C44.8011 19.9802 44.1457 19.7505 43.9076 19.6725C43.6695 19.5944 43.0142 19.3658 42.4514 19.1644C41.8885 18.9629 40.7373 18.5557 39.8931 18.2593C37.7839 17.5189 35.8755 16.8474 34.6584 16.4173C34.0955 16.2185 33.635 16.0577 33.635 16.0601C33.635 16.0624 33.4048 16.1477 33.1234 16.2495ZM31.9307 21.6734C31.4435 21.8045 31.154 22.0039 31.0497 22.2801C30.9857 22.4496 30.8736 22.5376 30.6071 22.6277C29.8161 22.8952 29.1579 23.5942 28.9093 24.431C28.7585 24.9382 28.7599 26.288 28.912 27.1512C29.0584 27.9821 29.0605 27.9381 28.8745 27.9381C28.6423 27.9381 28.4496 28.2812 28.5092 28.5883C28.5738 28.9208 28.781 29.636 28.9137 29.9841C28.9715 30.1356 29.0418 30.3654 29.07 30.4948C29.0982 30.6242 29.1558 30.7514 29.1979 30.7775C29.24 30.8034 29.3778 31.1809 29.504 31.6161C29.8155 32.6906 30.0588 33.2131 30.4402 33.6267C30.7582 33.9716 30.7619 33.9825 30.7619 34.5777V35.1798L30.4077 35.3518L30.0534 35.5239V36.2061V36.8883L30.367 36.9303C31.2964 37.0549 32.3214 37.9692 32.6146 38.9352C32.7637 39.4261 32.781 42.6495 32.6353 42.7951C32.5795 42.8509 32.311 42.8895 31.9784 42.8895C31.5241 42.8895 31.3898 42.8605 31.2794 42.7386C31.1705 42.6183 31.1607 42.5547 31.2306 42.4239C31.3015 42.2916 31.3938 42.26 31.7092 42.26H32.1001V40.7205C32.1001 39.2057 32.0967 39.1741 31.8864 38.745C31.024 36.9843 28.4733 37.0555 27.6251 38.864C27.4229 39.2953 27.4164 39.3542 27.4164 40.7648V42.2206L27.8683 42.2442C28.2188 42.2625 28.3385 42.3018 28.4015 42.4195C28.4651 42.5382 28.4481 42.6057 28.3235 42.7303C28.1948 42.859 28.0613 42.8895 27.6282 42.8895C26.7823 42.8895 26.8148 42.9643 26.8237 41.0376C26.8316 39.3241 26.8636 39.0345 27.0995 38.5375C27.4384 37.8235 28.3901 37.0853 29.1569 36.9415L29.4237 36.8914V36.4281C29.4237 35.8799 29.409 35.875 28.7064 36.1905C28.4299 36.3147 27.7077 36.6007 27.1015 36.8261C25.8225 37.3017 24.4716 37.9428 24.2629 38.1734C24.1208 38.3303 24.1263 38.3509 24.5335 39.1754C26.4431 43.0429 28.8617 46.2266 31.5097 48.3585C32.3666 49.0483 33.4913 49.8143 33.6473 49.8143C34.1098 49.8143 35.9709 48.3927 37.4541 46.9064C38.5512 45.807 38.7213 45.6135 39.533 44.542C40.736 42.954 41.5331 41.6916 42.4646 39.8992C43.2534 38.3813 43.2599 38.3616 43.0314 38.1703C42.7258 37.9145 41.5395 37.3244 40.5872 36.9546C40.0972 36.7643 39.4009 36.4814 39.0398 36.326C38.6788 36.1705 38.3689 36.0433 38.3511 36.0433C38.3333 36.0433 38.3187 36.5382 38.3187 37.143V38.2427L38.5442 38.3592C38.9519 38.57 39.163 39.3577 38.9419 39.8429C38.8172 40.1164 38.2603 40.4501 37.9291 40.4497C36.8191 40.4486 36.4031 38.8206 37.385 38.3199L37.689 38.1648V36.9478V35.7309L37.2224 35.4954C36.9658 35.3659 36.7387 35.2323 36.7178 35.1984C36.6969 35.1646 36.6547 34.8496 36.6241 34.4985L36.5684 33.8601L36.861 33.5549C37.022 33.3871 37.2445 33.1086 37.3555 32.9358C37.5444 32.6421 38.0038 31.4233 38.0038 31.2162C38.0038 31.1648 38.0709 30.9977 38.1528 30.8449C38.3239 30.5259 38.8389 28.9778 38.9107 28.5669C38.9748 28.1996 38.8416 27.8595 38.6337 27.8595C38.4793 27.8595 38.475 27.8319 38.5334 27.2102C38.5668 26.8532 38.5942 26.083 38.5942 25.4987C38.5942 24.5339 38.5767 24.4003 38.4028 24.0429C37.988 23.1902 36.9156 22.4043 35.5636 21.9622C34.4188 21.5879 32.7429 21.4547 31.9307 21.6734ZM37.7689 38.7942C37.3018 38.9117 37.2596 39.6169 37.7101 39.7753C38.2069 39.95 38.643 39.4921 38.3948 39.0562C38.2588 38.8173 38.0405 38.7259 37.7689 38.7942Z" fill="url(#paint0_linear_0_699)"/>
</g>
<defs>
<filter id="filter0_d_0_699" x="0.400001" y="0.400001" width="67.2" height="67.2" filterUnits="userSpaceOnUse" color-interpolation-filters="sRGB">
<feFlood flood-opacity="0" result="BackgroundImageFix"/>
<feColorMatrix in="SourceAlpha" type="matrix" values="0 0 0 0 0 0 0 0 0 0 0 0 0 0 0 0 0 0 127 0" result="hardAlpha"/>
<feOffset/>
<feGaussianBlur stdDeviation="2.8"/>
<feComposite in2="hardAlpha" operator="out"/>
<feColorMatrix type="matrix" values="0 0 0 0 0 0 0 0 0 0 0 0 0 0 0 0 0 0 0.25 0"/>
<feBlend mode="normal" in2="BackgroundImageFix" result="effect1_dropShadow_0_699"/>
<feBlend mode="normal" in="SourceGraphic" in2="effect1_dropShadow_0_699" result="shape"/>
</filter>
<linearGradient id="paint0_linear_0_699" x1="14.9398" y1="33.9846" x2="52.2169" y2="33.9846" gradientUnits="userSpaceOnUse">
<stop stop-color="#615CC3"/>
<stop offset="1" stop-color="#6AC2CD"/>
</linearGradient>
</defs>
</svg>
