<svg width="180" height="180" viewBox="0 0 180 180" fill="none" xmlns="http://www.w3.org/2000/svg">
<g clip-path="url(#clip0_0_704)">
<path d="M180 0H0V180H180V0Z" fill="white"/>
<path d="M16.681 11.25H11.25V16.681H16.681V11.25Z" fill="black"/>
<path d="M22.1121 11.25H16.681V16.681H22.1121V11.25Z" fill="black"/>
<path d="M27.5431 11.25H22.1121V16.681H27.5431V11.25Z" fill="black"/>
<path d="M32.9741 11.25H27.5431V16.681H32.9741V11.25Z" fill="black"/>
<path d="M38.4052 11.25H32.9741V16.681H38.4052V11.25Z" fill="black"/>
<path d="M43.8362 11.25H38.4052V16.681H43.8362V11.25Z" fill="black"/>
<path d="M49.2672 11.25H43.8362V16.681H49.2672V11.25Z" fill="black"/>
<path d="M60.1293 11.25H54.6983V16.681H60.1293V11.25Z" fill="black"/>
<path d="M70.9914 11.25H65.5603V16.681H70.9914V11.25Z" fill="black"/>
<path d="M98.1466 11.25H92.7155V16.681H98.1466V11.25Z" fill="black"/>
<path d="M103.578 11.25H98.1466V16.681H103.578V11.25Z" fill="black"/>
<path d="M114.44 11.25H109.009V16.681H114.44V11.25Z" fill="black"/>
<path d="M125.302 11.25H119.871V16.681H125.302V11.25Z" fill="black"/>
<path d="M136.164 11.25H130.733V16.681H136.164V11.25Z" fill="black"/>
<path d="M141.595 11.25H136.164V16.681H141.595V11.25Z" fill="black"/>
<path d="M147.026 11.25H141.595V16.681H147.026V11.25Z" fill="black"/>
<path d="M152.457 11.25H147.026V16.681H152.457V11.25Z" fill="black"/>
<path d="M157.888 11.25H152.457V16.681H157.888V11.25Z" fill="black"/>
<path d="M163.319 11.25H157.888V16.681H163.319V11.25Z" fill="black"/>
<path d="M168.75 11.25H163.319V16.681H168.75V11.25Z" fill="black"/>
<path d="M16.681 16.681H11.25V22.1121H16.681V16.681Z" fill="black"/>
<path d="M49.2672 16.681H43.8362V22.1121H49.2672V16.681Z" fill="black"/>
<path d="M65.5603 16.681H60.1293V22.1121H65.5603V16.681Z" fill="black"/>
<path d="M70.9914 16.681H65.5603V22.1121H70.9914V16.681Z" fill="black"/>
<path d="M76.4224 16.681H70.9914V22.1121H76.4224V16.681Z" fill="black"/>
<path d="M81.8534 16.681H76.4224V22.1121H81.8534V16.681Z" fill="black"/>
<path d="M92.7155 16.681H87.2845V22.1121H92.7155V16.681Z" fill="black"/>
<path d="M98.1466 16.681H92.7155V22.1121H98.1466V16.681Z" fill="black"/>
<path d="M136.164 16.681H130.733V22.1121H136.164V16.681Z" fill="black"/>
<path d="M168.75 16.681H163.319V22.1121H168.75V16.681Z" fill="black"/>
<path d="M16.681 22.1121H11.25V27.5431H16.681V22.1121Z" fill="black"/>
<path d="M27.5431 22.1121H22.1121V27.5431H27.5431V22.1121Z" fill="black"/>
<path d="M32.9741 22.1121H27.5431V27.5431H32.9741V22.1121Z" fill="black"/>
<path d="M38.4052 22.1121H32.9741V27.5431H38.4052V22.1121Z" fill="black"/>
<path d="M49.2672 22.1121H43.8362V27.5431H49.2672V22.1121Z" fill="black"/>
<path d="M70.9914 22.1121H65.5603V27.5431H70.9914V22.1121Z" fill="black"/>
<path d="M76.4224 22.1121H70.9914V27.5431H76.4224V22.1121Z" fill="black"/>
<path d="M81.8534 22.1121H76.4224V27.5431H81.8534V22.1121Z" fill="black"/>
<path d="M87.2845 22.1121H81.8534V27.5431H87.2845V22.1121Z" fill="black"/>
<path d="M98.1466 22.1121H92.7155V27.5431H98.1466V22.1121Z" fill="black"/>
<path d="M103.578 22.1121H98.1466V27.5431H103.578V22.1121Z" fill="black"/>
<path d="M119.871 22.1121H114.44V27.5431H119.871V22.1121Z" fill="black"/>
<path d="M125.302 22.1121H119.871V27.5431H125.302V22.1121Z" fill="black"/>
<path d="M136.164 22.1121H130.733V27.5431H136.164V22.1121Z" fill="black"/>
<path d="M147.026 22.1121H141.595V27.5431H147.026V22.1121Z" fill="black"/>
<path d="M152.457 22.1121H147.026V27.5431H152.457V22.1121Z" fill="black"/>
<path d="M157.888 22.1121H152.457V27.5431H157.888V22.1121Z" fill="black"/>
<path d="M168.75 22.1121H163.319V27.5431H168.75V22.1121Z" fill="black"/>
<path d="M16.681 27.5431H11.25V32.9741H16.681V27.5431Z" fill="black"/>
<path d="M27.5431 27.5431H22.1121V32.9741H27.5431V27.5431Z" fill="black"/>
<path d="M32.9741 27.5431H27.5431V32.9741H32.9741V27.5431Z" fill="black"/>
<path d="M38.4052 27.5431H32.9741V32.9741H38.4052V27.5431Z" fill="black"/>
<path d="M49.2672 27.5431H43.8362V32.9741H49.2672V27.5431Z" fill="black"/>
<path d="M60.1293 27.5431H54.6983V32.9741H60.1293V27.5431Z" fill="black"/>
<path d="M65.5603 27.5431H60.1293V32.9741H65.5603V27.5431Z" fill="black"/>
<path d="M70.9914 27.5431H65.5603V32.9741H70.9914V27.5431Z" fill="black"/>
<path d="M76.4224 27.5431H70.9914V32.9741H76.4224V27.5431Z" fill="black"/>
<path d="M87.2845 27.5431H81.8534V32.9741H87.2845V27.5431Z" fill="black"/>
<path d="M103.578 27.5431H98.1466V32.9741H103.578V27.5431Z" fill="black"/>
<path d="M119.871 27.5431H114.44V32.9741H119.871V27.5431Z" fill="black"/>
<path d="M136.164 27.5431H130.733V32.9741H136.164V27.5431Z" fill="black"/>
<path d="M147.026 27.5431H141.595V32.9741H147.026V27.5431Z" fill="black"/>
<path d="M152.457 27.5431H147.026V32.9741H152.457V27.5431Z" fill="black"/>
<path d="M157.888 27.5431H152.457V32.9741H157.888V27.5431Z" fill="black"/>
<path d="M168.75 27.5431H163.319V32.9741H168.75V27.5431Z" fill="black"/>
<path d="M16.681 32.9741H11.25V38.4052H16.681V32.9741Z" fill="black"/>
<path d="M27.5431 32.9741H22.1121V38.4052H27.5431V32.9741Z" fill="black"/>
<path d="M32.9741 32.9741H27.5431V38.4052H32.9741V32.9741Z" fill="black"/>
<path d="M38.4052 32.9741H32.9741V38.4052H38.4052V32.9741Z" fill="black"/>
<path d="M49.2672 32.9741H43.8362V38.4052H49.2672V32.9741Z" fill="black"/>
<path d="M87.2845 32.9741H81.8534V38.4052H87.2845V32.9741Z" fill="black"/>
<path d="M92.7155 32.9741H87.2845V38.4052H92.7155V32.9741Z" fill="black"/>
<path d="M98.1466 32.9741H92.7155V38.4052H98.1466V32.9741Z" fill="black"/>
<path d="M109.009 32.9741H103.578V38.4052H109.009V32.9741Z" fill="black"/>
<path d="M136.164 32.9741H130.733V38.4052H136.164V32.9741Z" fill="black"/>
<path d="M147.026 32.9741H141.595V38.4052H147.026V32.9741Z" fill="black"/>
<path d="M152.457 32.9741H147.026V38.4052H152.457V32.9741Z" fill="black"/>
<path d="M157.888 32.9741H152.457V38.4052H157.888V32.9741Z" fill="black"/>
<path d="M168.75 32.9741H163.319V38.4052H168.75V32.9741Z" fill="black"/>
<path d="M16.681 38.4052H11.25V43.8362H16.681V38.4052Z" fill="black"/>
<path d="M49.2672 38.4052H43.8362V43.8362H49.2672V38.4052Z" fill="black"/>
<path d="M60.1293 38.4052H54.6983V43.8362H60.1293V38.4052Z" fill="black"/>
<path d="M65.5603 38.4052H60.1293V43.8362H65.5603V38.4052Z" fill="black"/>
<path d="M70.9914 38.4052H65.5603V43.8362H70.9914V38.4052Z" fill="black"/>
<path d="M76.4224 38.4052H70.9914V43.8362H76.4224V38.4052Z" fill="black"/>
<path d="M81.8534 38.4052H76.4224V43.8362H81.8534V38.4052Z" fill="black"/>
<path d="M87.2845 38.4052H81.8534V43.8362H87.2845V38.4052Z" fill="black"/>
<path d="M98.1466 38.4052H92.7155V43.8362H98.1466V38.4052Z" fill="black"/>
<path d="M103.578 38.4052H98.1466V43.8362H103.578V38.4052Z" fill="black"/>
<path d="M136.164 38.4052H130.733V43.8362H136.164V38.4052Z" fill="black"/>
<path d="M168.75 38.4052H163.319V43.8362H168.75V38.4052Z" fill="black"/>
<path d="M16.681 43.8362H11.25V49.2672H16.681V43.8362Z" fill="black"/>
<path d="M22.1121 43.8362H16.681V49.2672H22.1121V43.8362Z" fill="black"/>
<path d="M27.5431 43.8362H22.1121V49.2672H27.5431V43.8362Z" fill="black"/>
<path d="M32.9741 43.8362H27.5431V49.2672H32.9741V43.8362Z" fill="black"/>
<path d="M38.4052 43.8362H32.9741V49.2672H38.4052V43.8362Z" fill="black"/>
<path d="M43.8362 43.8362H38.4052V49.2672H43.8362V43.8362Z" fill="black"/>
<path d="M49.2672 43.8362H43.8362V49.2672H49.2672V43.8362Z" fill="black"/>
<path d="M60.1293 43.8362H54.6983V49.2672H60.1293V43.8362Z" fill="black"/>
<path d="M70.9914 43.8362H65.5603V49.2672H70.9914V43.8362Z" fill="black"/>
<path d="M81.8534 43.8362H76.4224V49.2672H81.8534V43.8362Z" fill="black"/>
<path d="M92.7155 43.8362H87.2845V49.2672H92.7155V43.8362Z" fill="black"/>
<path d="M103.578 43.8362H98.1466V49.2672H103.578V43.8362Z" fill="black"/>
<path d="M114.44 43.8362H109.009V49.2672H114.44V43.8362Z" fill="black"/>
<path d="M125.302 43.8362H119.871V49.2672H125.302V43.8362Z" fill="black"/>
<path d="M136.164 43.8362H130.733V49.2672H136.164V43.8362Z" fill="black"/>
<path d="M141.595 43.8362H136.164V49.2672H141.595V43.8362Z" fill="black"/>
<path d="M147.026 43.8362H141.595V49.2672H147.026V43.8362Z" fill="black"/>
<path d="M152.457 43.8362H147.026V49.2672H152.457V43.8362Z" fill="black"/>
<path d="M157.888 43.8362H152.457V49.2672H157.888V43.8362Z" fill="black"/>
<path d="M163.319 43.8362H157.888V49.2672H163.319V43.8362Z" fill="black"/>
<path d="M168.75 43.8362H163.319V49.2672H168.75V43.8362Z" fill="black"/>
<path d="M65.5603 49.2672H60.1293V54.6983H65.5603V49.2672Z" fill="black"/>
<path d="M92.7155 49.2672H87.2845V54.6983H92.7155V49.2672Z" fill="black"/>
<path d="M109.009 49.2672H103.578V54.6983H109.009V49.2672Z" fill="black"/>
<path d="M114.44 49.2672H109.009V54.6983H114.44V49.2672Z" fill="black"/>
<path d="M119.871 49.2672H114.44V54.6983H119.871V49.2672Z" fill="black"/>
<path d="M125.302 49.2672H119.871V54.6983H125.302V49.2672Z" fill="black"/>
<path d="M43.8362 54.6983H38.4052V60.1293H43.8362V54.6983Z" fill="black"/>
<path d="M49.2672 54.6983H43.8362V60.1293H49.2672V54.6983Z" fill="black"/>
<path d="M60.1293 54.6983H54.6983V60.1293H60.1293V54.6983Z" fill="black"/>
<path d="M65.5603 54.6983H60.1293V60.1293H65.5603V54.6983Z" fill="black"/>
<path d="M76.4224 54.6983H70.9914V60.1293H76.4224V54.6983Z" fill="black"/>
<path d="M81.8534 54.6983H76.4224V60.1293H81.8534V54.6983Z" fill="black"/>
<path d="M92.7155 54.6983H87.2845V60.1293H92.7155V54.6983Z" fill="black"/>
<path d="M98.1466 54.6983H92.7155V60.1293H98.1466V54.6983Z" fill="black"/>
<path d="M103.578 54.6983H98.1466V60.1293H103.578V54.6983Z" fill="black"/>
<path d="M109.009 54.6983H103.578V60.1293H109.009V54.6983Z" fill="black"/>
<path d="M130.733 54.6983H125.302V60.1293H130.733V54.6983Z" fill="black"/>
<path d="M141.595 54.6983H136.164V60.1293H141.595V54.6983Z" fill="black"/>
<path d="M152.457 54.6983H147.026V60.1293H152.457V54.6983Z" fill="black"/>
<path d="M168.75 54.6983H163.319V60.1293H168.75V54.6983Z" fill="black"/>
<path d="M16.681 60.1293H11.25V65.5603H16.681V60.1293Z" fill="black"/>
<path d="M32.9741 60.1293H27.5431V65.5603H32.9741V60.1293Z" fill="black"/>
<path d="M54.6983 60.1293H49.2672V65.5603H54.6983V60.1293Z" fill="black"/>
<path d="M60.1293 60.1293H54.6983V65.5603H60.1293V60.1293Z" fill="black"/>
<path d="M65.5603 60.1293H60.1293V65.5603H65.5603V60.1293Z" fill="black"/>
<path d="M98.1466 60.1293H92.7155V65.5603H98.1466V60.1293Z" fill="black"/>
<path d="M109.009 60.1293H103.578V65.5603H109.009V60.1293Z" fill="black"/>
<path d="M119.871 60.1293H114.44V65.5603H119.871V60.1293Z" fill="black"/>
<path d="M130.733 60.1293H125.302V65.5603H130.733V60.1293Z" fill="black"/>
<path d="M16.681 65.5603H11.25V70.9914H16.681V65.5603Z" fill="black"/>
<path d="M32.9741 65.5603H27.5431V70.9914H32.9741V65.5603Z" fill="black"/>
<path d="M38.4052 65.5603H32.9741V70.9914H38.4052V65.5603Z" fill="black"/>
<path d="M49.2672 65.5603H43.8362V70.9914H49.2672V65.5603Z" fill="black"/>
<path d="M54.6983 65.5603H49.2672V70.9914H54.6983V65.5603Z" fill="black"/>
<path d="M60.1293 65.5603H54.6983V70.9914H60.1293V65.5603Z" fill="black"/>
<path d="M70.9914 65.5603H65.5603V70.9914H70.9914V65.5603Z" fill="black"/>
<path d="M81.8534 65.5603H76.4224V70.9914H81.8534V65.5603Z" fill="black"/>
<path d="M98.1466 65.5603H92.7155V70.9914H98.1466V65.5603Z" fill="black"/>
<path d="M114.44 65.5603H109.009V70.9914H114.44V65.5603Z" fill="black"/>
<path d="M125.302 65.5603H119.871V70.9914H125.302V65.5603Z" fill="black"/>
<path d="M136.164 65.5603H130.733V70.9914H136.164V65.5603Z" fill="black"/>
<path d="M147.026 65.5603H141.595V70.9914H147.026V65.5603Z" fill="black"/>
<path d="M157.888 65.5603H152.457V70.9914H157.888V65.5603Z" fill="black"/>
<path d="M168.75 65.5603H163.319V70.9914H168.75V65.5603Z" fill="black"/>
<path d="M43.8362 70.9914H38.4052V76.4224H43.8362V70.9914Z" fill="black"/>
<path d="M70.9914 70.9914H65.5603V76.4224H70.9914V70.9914Z" fill="black"/>
<path d="M87.2845 70.9914H81.8534V76.4224H87.2845V70.9914Z" fill="black"/>
<path d="M92.7155 70.9914H87.2845V76.4224H92.7155V70.9914Z" fill="black"/>
<path d="M103.578 70.9914H98.1466V76.4224H103.578V70.9914Z" fill="black"/>
<path d="M114.44 70.9914H109.009V76.4224H114.44V70.9914Z" fill="black"/>
<path d="M119.871 70.9914H114.44V76.4224H119.871V70.9914Z" fill="black"/>
<path d="M125.302 70.9914H119.871V76.4224H125.302V70.9914Z" fill="black"/>
<path d="M130.733 70.9914H125.302V76.4224H130.733V70.9914Z" fill="black"/>
<path d="M141.595 70.9914H136.164V76.4224H141.595V70.9914Z" fill="black"/>
<path d="M147.026 70.9914H141.595V76.4224H147.026V70.9914Z" fill="black"/>
<path d="M27.5431 76.4224H22.1121V81.8534H27.5431V76.4224Z" fill="black"/>
<path d="M49.2672 76.4224H43.8362V81.8534H49.2672V76.4224Z" fill="black"/>
<path d="M60.1293 76.4224H54.6983V81.8534H60.1293V76.4224Z" fill="black"/>
<path d="M65.5603 76.4224H60.1293V81.8534H65.5603V76.4224Z" fill="black"/>
<path d="M70.9914 76.4224H65.5603V81.8534H70.9914V76.4224Z" fill="black"/>
<path d="M76.4224 76.4224H70.9914V81.8534H76.4224V76.4224Z" fill="black"/>
<path d="M81.8534 76.4224H76.4224V81.8534H81.8534V76.4224Z" fill="black"/>
<path d="M92.7155 76.4224H87.2845V81.8534H92.7155V76.4224Z" fill="black"/>
<path d="M98.1466 76.4224H92.7155V81.8534H98.1466V76.4224Z" fill="black"/>
<path d="M114.44 76.4224H109.009V81.8534H114.44V76.4224Z" fill="black"/>
<path d="M119.871 76.4224H114.44V81.8534H119.871V76.4224Z" fill="black"/>
<path d="M136.164 76.4224H130.733V81.8534H136.164V76.4224Z" fill="black"/>
<path d="M147.026 76.4224H141.595V81.8534H147.026V76.4224Z" fill="black"/>
<path d="M157.888 76.4224H152.457V81.8534H157.888V76.4224Z" fill="black"/>
<path d="M168.75 76.4224H163.319V81.8534H168.75V76.4224Z" fill="black"/>
<path d="M16.681 81.8534H11.25V87.2845H16.681V81.8534Z" fill="black"/>
<path d="M22.1121 81.8534H16.681V87.2845H22.1121V81.8534Z" fill="black"/>
<path d="M27.5431 81.8534H22.1121V87.2845H27.5431V81.8534Z" fill="black"/>
<path d="M32.9741 81.8534H27.5431V87.2845H32.9741V81.8534Z" fill="black"/>
<path d="M38.4052 81.8534H32.9741V87.2845H38.4052V81.8534Z" fill="black"/>
<path d="M43.8362 81.8534H38.4052V87.2845H43.8362V81.8534Z" fill="black"/>
<path d="M98.1466 81.8534H92.7155V87.2845H98.1466V81.8534Z" fill="black"/>
<path d="M103.578 81.8534H98.1466V87.2845H103.578V81.8534Z" fill="black"/>
<path d="M114.44 81.8534H109.009V87.2845H114.44V81.8534Z" fill="black"/>
<path d="M119.871 81.8534H114.44V87.2845H119.871V81.8534Z" fill="black"/>
<path d="M130.733 81.8534H125.302V87.2845H130.733V81.8534Z" fill="black"/>
<path d="M136.164 81.8534H130.733V87.2845H136.164V81.8534Z" fill="black"/>
<path d="M141.595 81.8534H136.164V87.2845H141.595V81.8534Z" fill="black"/>
<path d="M163.319 81.8534H157.888V87.2845H163.319V81.8534Z" fill="black"/>
<path d="M168.75 81.8534H163.319V87.2845H168.75V81.8534Z" fill="black"/>
<path d="M22.1121 87.2845H16.681V92.7155H22.1121V87.2845Z" fill="black"/>
<path d="M32.9741 87.2845H27.5431V92.7155H32.9741V87.2845Z" fill="black"/>
<path d="M38.4052 87.2845H32.9741V92.7155H38.4052V87.2845Z" fill="black"/>
<path d="M43.8362 87.2845H38.4052V92.7155H43.8362V87.2845Z" fill="black"/>
<path d="M49.2672 87.2845H43.8362V92.7155H49.2672V87.2845Z" fill="black"/>
<path d="M54.6983 87.2845H49.2672V92.7155H54.6983V87.2845Z" fill="black"/>
<path d="M65.5603 87.2845H60.1293V92.7155H65.5603V87.2845Z" fill="black"/>
<path d="M76.4224 87.2845H70.9914V92.7155H76.4224V87.2845Z" fill="black"/>
<path d="M98.1466 87.2845H92.7155V92.7155H98.1466V87.2845Z" fill="black"/>
<path d="M103.578 87.2845H98.1466V92.7155H103.578V87.2845Z" fill="black"/>
<path d="M125.302 87.2845H119.871V92.7155H125.302V87.2845Z" fill="black"/>
<path d="M136.164 87.2845H130.733V92.7155H136.164V87.2845Z" fill="black"/>
<path d="M147.026 87.2845H141.595V92.7155H147.026V87.2845Z" fill="black"/>
<path d="M152.457 87.2845H147.026V92.7155H152.457V87.2845Z" fill="black"/>
<path d="M168.75 87.2845H163.319V92.7155H168.75V87.2845Z" fill="black"/>
<path d="M22.1121 92.7155H16.681V98.1466H22.1121V92.7155Z" fill="black"/>
<path d="M32.9741 92.7155H27.5431V98.1466H32.9741V92.7155Z" fill="black"/>
<path d="M60.1293 92.7155H54.6983V98.1466H60.1293V92.7155Z" fill="black"/>
<path d="M65.5603 92.7155H60.1293V98.1466H65.5603V92.7155Z" fill="black"/>
<path d="M76.4224 92.7155H70.9914V98.1466H76.4224V92.7155Z" fill="black"/>
<path d="M87.2845 92.7155H81.8534V98.1466H87.2845V92.7155Z" fill="black"/>
<path d="M92.7155 92.7155H87.2845V98.1466H92.7155V92.7155Z" fill="black"/>
<path d="M103.578 92.7155H98.1466V98.1466H103.578V92.7155Z" fill="black"/>
<path d="M109.009 92.7155H103.578V98.1466H109.009V92.7155Z" fill="black"/>
<path d="M119.871 92.7155H114.44V98.1466H119.871V92.7155Z" fill="black"/>
<path d="M130.733 92.7155H125.302V98.1466H130.733V92.7155Z" fill="black"/>
<path d="M136.164 92.7155H130.733V98.1466H136.164V92.7155Z" fill="black"/>
<path d="M147.026 92.7155H141.595V98.1466H147.026V92.7155Z" fill="black"/>
<path d="M152.457 92.7155H147.026V98.1466H152.457V92.7155Z" fill="black"/>
<path d="M163.319 92.7155H157.888V98.1466H163.319V92.7155Z" fill="black"/>
<path d="M16.681 98.1466H11.25V103.578H16.681V98.1466Z" fill="black"/>
<path d="M27.5431 98.1466H22.1121V103.578H27.5431V98.1466Z" fill="black"/>
<path d="M38.4052 98.1466H32.9741V103.578H38.4052V98.1466Z" fill="black"/>
<path d="M49.2672 98.1466H43.8362V103.578H49.2672V98.1466Z" fill="black"/>
<path d="M70.9914 98.1466H65.5603V103.578H70.9914V98.1466Z" fill="black"/>
<path d="M81.8534 98.1466H76.4224V103.578H81.8534V98.1466Z" fill="black"/>
<path d="M92.7155 98.1466H87.2845V103.578H92.7155V98.1466Z" fill="black"/>
<path d="M98.1466 98.1466H92.7155V103.578H98.1466V98.1466Z" fill="black"/>
<path d="M103.578 98.1466H98.1466V103.578H103.578V98.1466Z" fill="black"/>
<path d="M119.871 98.1466H114.44V103.578H119.871V98.1466Z" fill="black"/>
<path d="M125.302 98.1466H119.871V103.578H125.302V98.1466Z" fill="black"/>
<path d="M130.733 98.1466H125.302V103.578H130.733V98.1466Z" fill="black"/>
<path d="M141.595 98.1466H136.164V103.578H141.595V98.1466Z" fill="black"/>
<path d="M152.457 98.1466H147.026V103.578H152.457V98.1466Z" fill="black"/>
<path d="M22.1121 103.578H16.681V109.009H22.1121V103.578Z" fill="black"/>
<path d="M27.5431 103.578H22.1121V109.009H27.5431V103.578Z" fill="black"/>
<path d="M54.6983 103.578H49.2672V109.009H54.6983V103.578Z" fill="black"/>
<path d="M70.9914 103.578H65.5603V109.009H70.9914V103.578Z" fill="black"/>
<path d="M81.8534 103.578H76.4224V109.009H81.8534V103.578Z" fill="black"/>
<path d="M87.2845 103.578H81.8534V109.009H87.2845V103.578Z" fill="black"/>
<path d="M98.1466 103.578H92.7155V109.009H98.1466V103.578Z" fill="black"/>
<path d="M103.578 103.578H98.1466V109.009H103.578V103.578Z" fill="black"/>
<path d="M114.44 103.578H109.009V109.009H114.44V103.578Z" fill="black"/>
<path d="M119.871 103.578H114.44V109.009H119.871V103.578Z" fill="black"/>
<path d="M136.164 103.578H130.733V109.009H136.164V103.578Z" fill="black"/>
<path d="M16.681 109.009H11.25V114.44H16.681V109.009Z" fill="black"/>
<path d="M22.1121 109.009H16.681V114.44H22.1121V109.009Z" fill="black"/>
<path d="M27.5431 109.009H22.1121V114.44H27.5431V109.009Z" fill="black"/>
<path d="M32.9741 109.009H27.5431V114.44H32.9741V109.009Z" fill="black"/>
<path d="M38.4052 109.009H32.9741V114.44H38.4052V109.009Z" fill="black"/>
<path d="M49.2672 109.009H43.8362V114.44H49.2672V109.009Z" fill="black"/>
<path d="M54.6983 109.009H49.2672V114.44H54.6983V109.009Z" fill="black"/>
<path d="M60.1293 109.009H54.6983V114.44H60.1293V109.009Z" fill="black"/>
<path d="M87.2845 109.009H81.8534V114.44H87.2845V109.009Z" fill="black"/>
<path d="M98.1466 109.009H92.7155V114.44H98.1466V109.009Z" fill="black"/>
<path d="M109.009 109.009H103.578V114.44H109.009V109.009Z" fill="black"/>
<path d="M114.44 109.009H109.009V114.44H114.44V109.009Z" fill="black"/>
<path d="M119.871 109.009H114.44V114.44H119.871V109.009Z" fill="black"/>
<path d="M125.302 109.009H119.871V114.44H125.302V109.009Z" fill="black"/>
<path d="M141.595 109.009H136.164V114.44H141.595V109.009Z" fill="black"/>
<path d="M147.026 109.009H141.595V114.44H147.026V109.009Z" fill="black"/>
<path d="M16.681 114.44H11.25V119.871H16.681V114.44Z" fill="black"/>
<path d="M43.8362 114.44H38.4052V119.871H43.8362V114.44Z" fill="black"/>
<path d="M60.1293 114.44H54.6983V119.871H60.1293V114.44Z" fill="black"/>
<path d="M70.9914 114.44H65.5603V119.871H70.9914V114.44Z" fill="black"/>
<path d="M76.4224 114.44H70.9914V119.871H76.4224V114.44Z" fill="black"/>
<path d="M87.2845 114.44H81.8534V119.871H87.2845V114.44Z" fill="black"/>
<path d="M119.871 114.44H114.44V119.871H119.871V114.44Z" fill="black"/>
<path d="M152.457 114.44H147.026V119.871H152.457V114.44Z" fill="black"/>
<path d="M157.888 114.44H152.457V119.871H157.888V114.44Z" fill="black"/>
<path d="M163.319 114.44H157.888V119.871H163.319V114.44Z" fill="black"/>
<path d="M27.5431 119.871H22.1121V125.302H27.5431V119.871Z" fill="black"/>
<path d="M49.2672 119.871H43.8362V125.302H49.2672V119.871Z" fill="black"/>
<path d="M65.5603 119.871H60.1293V125.302H65.5603V119.871Z" fill="black"/>
<path d="M70.9914 119.871H65.5603V125.302H70.9914V119.871Z" fill="black"/>
<path d="M87.2845 119.871H81.8534V125.302H87.2845V119.871Z" fill="black"/>
<path d="M98.1466 119.871H92.7155V125.302H98.1466V119.871Z" fill="black"/>
<path d="M103.578 119.871H98.1466V125.302H103.578V119.871Z" fill="black"/>
<path d="M109.009 119.871H103.578V125.302H109.009V119.871Z" fill="black"/>
<path d="M125.302 119.871H119.871V125.302H125.302V119.871Z" fill="black"/>
<path d="M130.733 119.871H125.302V125.302H130.733V119.871Z" fill="black"/>
<path d="M136.164 119.871H130.733V125.302H136.164V119.871Z" fill="black"/>
<path d="M141.595 119.871H136.164V125.302H141.595V119.871Z" fill="black"/>
<path d="M147.026 119.871H141.595V125.302H147.026V119.871Z" fill="black"/>
<path d="M163.319 119.871H157.888V125.302H163.319V119.871Z" fill="black"/>
<path d="M168.75 119.871H163.319V125.302H168.75V119.871Z" fill="black"/>
<path d="M60.1293 125.302H54.6983V130.733H60.1293V125.302Z" fill="black"/>
<path d="M81.8534 125.302H76.4224V130.733H81.8534V125.302Z" fill="black"/>
<path d="M92.7155 125.302H87.2845V130.733H92.7155V125.302Z" fill="black"/>
<path d="M98.1466 125.302H92.7155V130.733H98.1466V125.302Z" fill="black"/>
<path d="M103.578 125.302H98.1466V130.733H103.578V125.302Z" fill="black"/>
<path d="M109.009 125.302H103.578V130.733H109.009V125.302Z" fill="black"/>
<path d="M114.44 125.302H109.009V130.733H114.44V125.302Z" fill="black"/>
<path d="M125.302 125.302H119.871V130.733H125.302V125.302Z" fill="black"/>
<path d="M147.026 125.302H141.595V130.733H147.026V125.302Z" fill="black"/>
<path d="M157.888 125.302H152.457V130.733H157.888V125.302Z" fill="black"/>
<path d="M163.319 125.302H157.888V130.733H163.319V125.302Z" fill="black"/>
<path d="M16.681 130.733H11.25V136.164H16.681V130.733Z" fill="black"/>
<path d="M22.1121 130.733H16.681V136.164H22.1121V130.733Z" fill="black"/>
<path d="M27.5431 130.733H22.1121V136.164H27.5431V130.733Z" fill="black"/>
<path d="M32.9741 130.733H27.5431V136.164H32.9741V130.733Z" fill="black"/>
<path d="M38.4052 130.733H32.9741V136.164H38.4052V130.733Z" fill="black"/>
<path d="M43.8362 130.733H38.4052V136.164H43.8362V130.733Z" fill="black"/>
<path d="M49.2672 130.733H43.8362V136.164H49.2672V130.733Z" fill="black"/>
<path d="M65.5603 130.733H60.1293V136.164H65.5603V130.733Z" fill="black"/>
<path d="M76.4224 130.733H70.9914V136.164H76.4224V130.733Z" fill="black"/>
<path d="M81.8534 130.733H76.4224V136.164H81.8534V130.733Z" fill="black"/>
<path d="M92.7155 130.733H87.2845V136.164H92.7155V130.733Z" fill="black"/>
<path d="M109.009 130.733H103.578V136.164H109.009V130.733Z" fill="black"/>
<path d="M125.302 130.733H119.871V136.164H125.302V130.733Z" fill="black"/>
<path d="M136.164 130.733H130.733V136.164H136.164V130.733Z" fill="black"/>
<path d="M147.026 130.733H141.595V136.164H147.026V130.733Z" fill="black"/>
<path d="M152.457 130.733H147.026V136.164H152.457V130.733Z" fill="black"/>
<path d="M168.75 130.733H163.319V136.164H168.75V130.733Z" fill="black"/>
<path d="M16.681 136.164H11.25V141.595H16.681V136.164Z" fill="black"/>
<path d="M49.2672 136.164H43.8362V141.595H49.2672V136.164Z" fill="black"/>
<path d="M60.1293 136.164H54.6983V141.595H60.1293V136.164Z" fill="black"/>
<path d="M70.9914 136.164H65.5603V141.595H70.9914V136.164Z" fill="black"/>
<path d="M76.4224 136.164H70.9914V141.595H76.4224V136.164Z" fill="black"/>
<path d="M87.2845 136.164H81.8534V141.595H87.2845V136.164Z" fill="black"/>
<path d="M109.009 136.164H103.578V141.595H109.009V136.164Z" fill="black"/>
<path d="M114.44 136.164H109.009V141.595H114.44V136.164Z" fill="black"/>
<path d="M119.871 136.164H114.44V141.595H119.871V136.164Z" fill="black"/>
<path d="M125.302 136.164H119.871V141.595H125.302V136.164Z" fill="black"/>
<path d="M147.026 136.164H141.595V141.595H147.026V136.164Z" fill="black"/>
<path d="M152.457 136.164H147.026V141.595H152.457V136.164Z" fill="black"/>
<path d="M163.319 136.164H157.888V141.595H163.319V136.164Z" fill="black"/>
<path d="M16.681 141.595H11.25V147.026H16.681V141.595Z" fill="black"/>
<path d="M27.5431 141.595H22.1121V147.026H27.5431V141.595Z" fill="black"/>
<path d="M32.9741 141.595H27.5431V147.026H32.9741V141.595Z" fill="black"/>
<path d="M38.4052 141.595H32.9741V147.026H38.4052V141.595Z" fill="black"/>
<path d="M49.2672 141.595H43.8362V147.026H49.2672V141.595Z" fill="black"/>
<path d="M70.9914 141.595H65.5603V147.026H70.9914V141.595Z" fill="black"/>
<path d="M76.4224 141.595H70.9914V147.026H76.4224V141.595Z" fill="black"/>
<path d="M92.7155 141.595H87.2845V147.026H92.7155V141.595Z" fill="black"/>
<path d="M98.1466 141.595H92.7155V147.026H98.1466V141.595Z" fill="black"/>
<path d="M114.44 141.595H109.009V147.026H114.44V141.595Z" fill="black"/>
<path d="M119.871 141.595H114.44V147.026H119.871V141.595Z" fill="black"/>
<path d="M125.302 141.595H119.871V147.026H125.302V141.595Z" fill="black"/>
<path d="M130.733 141.595H125.302V147.026H130.733V141.595Z" fill="black"/>
<path d="M136.164 141.595H130.733V147.026H136.164V141.595Z" fill="black"/>
<path d="M141.595 141.595H136.164V147.026H141.595V141.595Z" fill="black"/>
<path d="M147.026 141.595H141.595V147.026H147.026V141.595Z" fill="black"/>
<path d="M152.457 141.595H147.026V147.026H152.457V141.595Z" fill="black"/>
<path d="M157.888 141.595H152.457V147.026H157.888V141.595Z" fill="black"/>
<path d="M163.319 141.595H157.888V147.026H163.319V141.595Z" fill="black"/>
<path d="M168.75 141.595H163.319V147.026H168.75V141.595Z" fill="black"/>
<path d="M16.681 147.026H11.25V152.457H16.681V147.026Z" fill="black"/>
<path d="M27.5431 147.026H22.1121V152.457H27.5431V147.026Z" fill="black"/>
<path d="M32.9741 147.026H27.5431V152.457H32.9741V147.026Z" fill="black"/>
<path d="M38.4052 147.026H32.9741V152.457H38.4052V147.026Z" fill="black"/>
<path d="M49.2672 147.026H43.8362V152.457H49.2672V147.026Z" fill="black"/>
<path d="M65.5603 147.026H60.1293V152.457H65.5603V147.026Z" fill="black"/>
<path d="M70.9914 147.026H65.5603V152.457H70.9914V147.026Z" fill="black"/>
<path d="M76.4224 147.026H70.9914V152.457H76.4224V147.026Z" fill="black"/>
<path d="M81.8534 147.026H76.4224V152.457H81.8534V147.026Z" fill="black"/>
<path d="M98.1466 147.026H92.7155V152.457H98.1466V147.026Z" fill="black"/>
<path d="M103.578 147.026H98.1466V152.457H103.578V147.026Z" fill="black"/>
<path d="M114.44 147.026H109.009V152.457H114.44V147.026Z" fill="black"/>
<path d="M147.026 147.026H141.595V152.457H147.026V147.026Z" fill="black"/>
<path d="M152.457 147.026H147.026V152.457H152.457V147.026Z" fill="black"/>
<path d="M16.681 152.457H11.25V157.888H16.681V152.457Z" fill="black"/>
<path d="M27.5431 152.457H22.1121V157.888H27.5431V152.457Z" fill="black"/>
<path d="M32.9741 152.457H27.5431V157.888H32.9741V152.457Z" fill="black"/>
<path d="M38.4052 152.457H32.9741V157.888H38.4052V152.457Z" fill="black"/>
<path d="M49.2672 152.457H43.8362V157.888H49.2672V152.457Z" fill="black"/>
<path d="M70.9914 152.457H65.5603V157.888H70.9914V152.457Z" fill="black"/>
<path d="M76.4224 152.457H70.9914V157.888H76.4224V152.457Z" fill="black"/>
<path d="M87.2845 152.457H81.8534V157.888H87.2845V152.457Z" fill="black"/>
<path d="M92.7155 152.457H87.2845V157.888H92.7155V152.457Z" fill="black"/>
<path d="M125.302 152.457H119.871V157.888H125.302V152.457Z" fill="black"/>
<path d="M130.733 152.457H125.302V157.888H130.733V152.457Z" fill="black"/>
<path d="M141.595 152.457H136.164V157.888H141.595V152.457Z" fill="black"/>
<path d="M16.681 157.888H11.25V163.319H16.681V157.888Z" fill="black"/>
<path d="M49.2672 157.888H43.8362V163.319H49.2672V157.888Z" fill="black"/>
<path d="M70.9914 157.888H65.5603V163.319H70.9914V157.888Z" fill="black"/>
<path d="M76.4224 157.888H70.9914V163.319H76.4224V157.888Z" fill="black"/>
<path d="M81.8534 157.888H76.4224V163.319H81.8534V157.888Z" fill="black"/>
<path d="M92.7155 157.888H87.2845V163.319H92.7155V157.888Z" fill="black"/>
<path d="M98.1466 157.888H92.7155V163.319H98.1466V157.888Z" fill="black"/>
<path d="M103.578 157.888H98.1466V163.319H103.578V157.888Z" fill="black"/>
<path d="M114.44 157.888H109.009V163.319H114.44V157.888Z" fill="black"/>
<path d="M119.871 157.888H114.44V163.319H119.871V157.888Z" fill="black"/>
<path d="M130.733 157.888H125.302V163.319H130.733V157.888Z" fill="black"/>
<path d="M136.164 157.888H130.733V163.319H136.164V157.888Z" fill="black"/>
<path d="M141.595 157.888H136.164V163.319H141.595V157.888Z" fill="black"/>
<path d="M147.026 157.888H141.595V163.319H147.026V157.888Z" fill="black"/>
<path d="M163.319 157.888H157.888V163.319H163.319V157.888Z" fill="black"/>
<path d="M168.75 157.888H163.319V163.319H168.75V157.888Z" fill="black"/>
<path d="M16.681 163.319H11.25V168.75H16.681V163.319Z" fill="black"/>
<path d="M22.1121 163.319H16.681V168.75H22.1121V163.319Z" fill="black"/>
<path d="M27.5431 163.319H22.1121V168.75H27.5431V163.319Z" fill="black"/>
<path d="M32.9741 163.319H27.5431V168.75H32.9741V163.319Z" fill="black"/>
<path d="M38.4052 163.319H32.9741V168.75H38.4052V163.319Z" fill="black"/>
<path d="M43.8362 163.319H38.4052V168.75H43.8362V163.319Z" fill="black"/>
<path d="M49.2672 163.319H43.8362V168.75H49.2672V163.319Z" fill="black"/>
<path d="M65.5603 163.319H60.1293V168.75H65.5603V163.319Z" fill="black"/>
<path d="M81.8534 163.319H76.4224V168.75H81.8534V163.319Z" fill="black"/>
<path d="M92.7155 163.319H87.2845V168.75H92.7155V163.319Z" fill="black"/>
<path d="M109.009 163.319H103.578V168.75H109.009V163.319Z" fill="black"/>
<path d="M114.44 163.319H109.009V168.75H114.44V163.319Z" fill="black"/>
<path d="M119.871 163.319H114.44V168.75H119.871V163.319Z" fill="black"/>
<path d="M130.733 163.319H125.302V168.75H130.733V163.319Z" fill="black"/>
<path d="M152.457 163.319H147.026V168.75H152.457V163.319Z" fill="black"/>
<path d="M157.888 163.319H152.457V168.75H157.888V163.319Z" fill="black"/>
</g>
<defs>
<clipPath id="clip0_0_704">
<rect width="180" height="180" fill="white"/>
</clipPath>
</defs>
</svg>
