<svg width="40" height="41" viewBox="0 0 40 41" fill="none" xmlns="http://www.w3.org/2000/svg">
<rect y="0.5" width="40" height="40" rx="20" fill="#EDF0F8"/>
<path d="M29.375 14.7818C28.6855 15.0747 27.9351 15.2855 27.1622 15.3676C27.9647 14.8982 28.5656 14.1565 28.8522 13.2818C28.0992 13.7229 27.2743 14.0322 26.4141 14.196C26.0546 13.8175 25.6198 13.516 25.1367 13.3102C24.6537 13.1045 24.1328 12.9989 23.6065 13C21.4771 13 19.7645 14.6997 19.7645 16.7855C19.7645 17.0784 19.8006 17.3713 19.8592 17.6531C16.6707 17.4889 13.827 15.9889 11.9364 13.6923C11.592 14.2717 11.4114 14.9314 11.4137 15.6028C11.4137 16.9164 12.0919 18.0747 13.1262 18.7559C12.5167 18.7323 11.9214 18.5673 11.3889 18.2744V18.321C11.3889 20.1605 12.7093 21.6849 14.4692 22.0355C14.1388 22.12 13.7988 22.1633 13.4574 22.1642C13.2073 22.1642 12.9707 22.1398 12.7319 22.1065C13.2186 23.6065 14.6359 24.696 16.3237 24.7315C15.0032 25.75 13.3493 26.3491 11.5534 26.3491C11.2311 26.3491 10.9337 26.338 10.625 26.3025C12.3285 27.3787 14.3498 28 16.5265 28C23.5929 28 27.4597 22.2352 27.4597 17.2315C27.4597 17.0673 27.4597 16.9031 27.4484 16.7389C28.1965 16.1997 28.8522 15.5318 29.375 14.7818Z" fill="black"/>
</svg>
