<svg width="40" height="40" viewBox="0 0 40 40" fill="none" xmlns="http://www.w3.org/2000/svg">
<rect y="0.00268555" width="40" height="40" rx="20" fill="white" fill-opacity="0.1"/>
<path fill-rule="evenodd" clip-rule="evenodd" d="M18.0503 23.1656V17.4278L23.019 20.2968L18.0503 23.1656ZM29.126 15.6932C28.9061 14.8704 28.2581 14.2223 27.4352 14.0023C25.9436 13.6028 19.9628 13.6028 19.9628 13.6028C19.9628 13.6028 13.9821 13.6028 12.4905 14.0023C11.6676 14.2223 11.0197 14.8704 10.7997 15.6932C10.4 17.1848 10.4 20.2967 10.4 20.2967C10.4 20.2967 10.4 23.4086 10.7997 24.9001C11.0197 25.7229 11.6676 26.3712 12.4905 26.591C13.9821 26.9907 19.9628 26.9907 19.9628 26.9907C19.9628 26.9907 25.9436 26.9907 27.4352 26.591C28.2581 26.3712 28.9061 25.7229 29.126 24.9001C29.5257 23.4086 29.5257 20.2967 29.5257 20.2967C29.5257 20.2967 29.5257 17.1848 29.126 15.6932Z" fill="white"/>
</svg>
